M48
; DRILL file {KiCad 8.0.3} date 2024-07-01T21:17:27+0800
; FORMAT={-:-/ absolute / metric / decimal}
; #@! TF.CreationDate,2024-07-01T21:17:27+08:00
; #@! TF.GenerationSoftware,Kicad,Pcbnew,8.0.3
; #@! TF.FileFunction,Plated,1,2,PTH
FMAT,2
METRIC
; #@! TA.AperFunction,Plated,PTH,ViaDrill
T1C0.300
; #@! TA.AperFunction,Plated,PTH,ComponentDrill
T2C0.600
; #@! TA.AperFunction,Plated,PTH,ComponentDrill
T3C0.900
; #@! TA.AperFunction,Plated,PTH,ComponentDrill
T4C1.000
; #@! TA.AperFunction,Plated,PTH,ComponentDrill
T5C2.200
; #@! TA.AperFunction,Plated,PTH,ComponentDrill
T6C2.400
%
G90
G05
T1
X54.7Y-62.9
X55.5Y-57.8
X57.8Y-64.9
X60.1Y-73.6
X60.2Y-70.5
X60.2Y-72.0
X60.6Y-75.2
X61.9Y-60.4
X62.3Y-70.2
X63.5Y-66.2
X64.3Y-70.3
X64.5Y-60.1
X64.9Y-53.1
X64.9Y-58.2
X65.6Y-64.6
X65.8Y-70.7
X66.0Y-61.2
X67.7Y-71.4
X68.1Y-66.5
X68.2Y-61.0
X68.2Y-64.1
X68.8Y-54.0
X69.9Y-57.7
X71.3Y-54.3
X72.2Y-53.1
X72.2Y-67.1
X73.7Y-53.1
X73.7Y-79.9
X75.4Y-53.1
X76.1Y-66.6
X76.1Y-68.1
X76.2Y-79.9
X77.4Y-60.7
X77.6Y-68.1
X77.6Y-69.6
X77.7Y-53.8
X77.7Y-63.2
X77.7Y-64.3
X77.7Y-65.4
X77.7Y-66.5
X77.9Y-61.2
X80.9Y-80.9
X81.7Y-53.3
X82.9Y-62.3
X84.4Y-52.8
X85.1Y-54.8
X85.6Y-80.1
X87.1Y-55.7
X87.1Y-60.4
X87.3Y-64.1
X87.3Y-73.7
X87.4Y-68.9
X87.9Y-62.3
X88.0Y-61.1
X88.2Y-53.5
X88.4Y-52.6
X88.7Y-62.3
X88.8Y-57.9
X89.0Y-65.5
X89.2Y-66.9
X89.8Y-55.4
X90.0Y-52.3
X90.5Y-62.5
X90.5Y-67.0
X90.5Y-70.5
X90.6Y-69.3
X91.3Y-71.3
X91.3Y-84.1
X91.6Y-61.5
X92.1Y-64.1
X92.2Y-70.2
X92.914Y-61.714
X93.0Y-63.5
X93.775Y-62.6
X93.8Y-52.9
X93.9Y-69.0
X94.3Y-68.2
X94.8Y-58.8
X94.8Y-60.5
X94.875Y-71.2
X95.4Y-53.3
X95.7Y-58.8
X95.7Y-60.5
X95.785Y-72.25
X96.5Y-58.8
X96.5Y-60.5
X96.6Y-80.5
X96.875Y-79.0
X96.9Y-83.5
X97.0Y-74.9
X97.275Y-55.2
X97.375Y-71.3
X97.575Y-57.5
X97.6Y-67.0
X97.7Y-53.2
X98.4Y-83.5
X98.5Y-64.7
X98.5Y-65.6
X98.575Y-57.3
X98.575Y-68.8
X99.085Y-58.38
X99.2Y-75.1
X99.2Y-76.0
X99.2Y-76.9
X99.3Y-82.8
X99.4Y-81.8
X99.5Y-69.5
X99.675Y-56.0
X99.675Y-63.2
X99.7Y-60.6
X99.9Y-67.4
X100.0Y-74.9
X100.0Y-75.9
X100.0Y-76.8
X100.2Y-81.1
X100.3Y-53.2
X100.9Y-56.1
X101.0Y-60.8
X101.1Y-67.3
X101.4Y-66.3
X101.425Y-63.55
X101.6Y-56.8
X103.475Y-66.1
X103.6Y-73.2
X106.0Y-75.6
X107.2Y-82.1
X107.4Y-71.3
X108.2Y-53.0
X108.9Y-64.7
X108.9Y-69.7
X109.0Y-72.6
X109.5Y-81.9
X109.7Y-54.3
X109.7Y-68.4
X109.8Y-67.1
X109.9Y-65.8
X110.5Y-64.9
X110.5Y-70.2
X110.6Y-76.9
X110.7Y-72.0
X110.9Y-57.7
X110.9Y-76.0
X111.1Y-56.8
X111.2Y-54.3
X111.2Y-63.7
X111.3Y-62.5
X111.3Y-73.0
X111.4Y-81.0
X111.5Y-77.6
X111.6Y-52.9
X111.8Y-71.2
X111.8Y-82.0
X112.7Y-64.1
X113.0Y-52.3
X113.3Y-71.2
X114.1Y-64.0
X114.485Y-58.88
X114.76Y-57.03
X114.775Y-77.0
X115.3Y-52.3
X115.3Y-55.2
X115.3Y-60.8
X115.3Y-64.3
X115.3Y-71.3
X115.4Y-80.8
X115.4Y-82.2
X115.5Y-79.2
X115.6Y-62.3
X115.8Y-53.9
X115.8Y-72.6
X116.1Y-74.3
X116.8Y-75.6
X116.8Y-78.0
T3
X72.335Y-81.8
X74.875Y-81.8
T4
X53.5Y-70.5
X53.5Y-81.5
X60.5Y-54.34
X60.5Y-56.88
X60.5Y-59.42
X60.5Y-61.96
X60.5Y-64.5
T5
X104.0Y-53.0
X104.0Y-82.0
T6
X63.5Y-73.5
X63.5Y-78.5
T2
X113.01Y-53.76G85X114.11Y-53.76
G05
X113.01Y-62.4G85X114.11Y-62.4
G05
X113.025Y-72.88G85X114.125Y-72.88
G05
X113.025Y-81.52G85X114.125Y-81.52
G05
X117.36Y-53.76G85X118.16Y-53.76
G05
X117.36Y-62.4G85X118.16Y-62.4
G05
X117.375Y-72.88G85X118.175Y-72.88
G05
X117.375Y-81.52G85X118.175Y-81.52
G05
M30
