G04 #@! TF.GenerationSoftware,KiCad,Pcbnew,8.0.3*
G04 #@! TF.CreationDate,2024-07-01T21:16:25+08:00*
G04 #@! TF.ProjectId,PD board,50442062-6f61-4726-942e-6b696361645f,rev?*
G04 #@! TF.SameCoordinates,Original*
G04 #@! TF.FileFunction,Paste,Top*
G04 #@! TF.FilePolarity,Positive*
%FSLAX46Y46*%
G04 Gerber Fmt 4.6, Leading zero omitted, Abs format (unit mm)*
G04 Created by KiCad (PCBNEW 8.0.3) date 2024-07-01 21:16:25*
%MOMM*%
%LPD*%
G01*
G04 APERTURE LIST*
G04 Aperture macros list*
%AMRoundRect*
0 Rectangle with rounded corners*
0 $1 Rounding radius*
0 $2 $3 $4 $5 $6 $7 $8 $9 X,Y pos of 4 corners*
0 Add a 4 corners polygon primitive as box body*
4,1,4,$2,$3,$4,$5,$6,$7,$8,$9,$2,$3,0*
0 Add four circle primitives for the rounded corners*
1,1,$1+$1,$2,$3*
1,1,$1+$1,$4,$5*
1,1,$1+$1,$6,$7*
1,1,$1+$1,$8,$9*
0 Add four rect primitives between the rounded corners*
20,1,$1+$1,$2,$3,$4,$5,0*
20,1,$1+$1,$4,$5,$6,$7,0*
20,1,$1+$1,$6,$7,$8,$9,0*
20,1,$1+$1,$8,$9,$2,$3,0*%
G04 Aperture macros list end*
%ADD10RoundRect,0.225000X-0.250000X0.225000X-0.250000X-0.225000X0.250000X-0.225000X0.250000X0.225000X0*%
%ADD11RoundRect,0.375000X-2.000000X1.125000X-2.000000X-1.125000X2.000000X-1.125000X2.000000X1.125000X0*%
%ADD12RoundRect,0.225000X0.225000X0.250000X-0.225000X0.250000X-0.225000X-0.250000X0.225000X-0.250000X0*%
%ADD13RoundRect,0.250000X-0.650000X0.325000X-0.650000X-0.325000X0.650000X-0.325000X0.650000X0.325000X0*%
%ADD14RoundRect,0.242500X0.242500X0.242500X-0.242500X0.242500X-0.242500X-0.242500X0.242500X-0.242500X0*%
%ADD15RoundRect,0.062500X0.350000X0.062500X-0.350000X0.062500X-0.350000X-0.062500X0.350000X-0.062500X0*%
%ADD16RoundRect,0.062500X0.062500X0.350000X-0.062500X0.350000X-0.062500X-0.350000X0.062500X-0.350000X0*%
%ADD17RoundRect,0.243750X-0.243750X-0.456250X0.243750X-0.456250X0.243750X0.456250X-0.243750X0.456250X0*%
%ADD18R,2.900000X5.400000*%
%ADD19RoundRect,0.250000X-0.325000X-0.650000X0.325000X-0.650000X0.325000X0.650000X-0.325000X0.650000X0*%
%ADD20RoundRect,0.375000X-0.375000X-0.375000X0.375000X-0.375000X0.375000X0.375000X-0.375000X0.375000X0*%
%ADD21RoundRect,0.125000X-0.250000X-0.125000X0.250000X-0.125000X0.250000X0.125000X-0.250000X0.125000X0*%
%ADD22RoundRect,0.100000X-0.275000X-0.100000X0.275000X-0.100000X0.275000X0.100000X-0.275000X0.100000X0*%
%ADD23R,1.240000X0.600000*%
%ADD24R,1.240000X0.300000*%
%ADD25RoundRect,0.200000X0.275000X-0.200000X0.275000X0.200000X-0.275000X0.200000X-0.275000X-0.200000X0*%
%ADD26RoundRect,0.225000X0.250000X-0.225000X0.250000X0.225000X-0.250000X0.225000X-0.250000X-0.225000X0*%
%ADD27RoundRect,0.375000X0.375000X0.375000X-0.375000X0.375000X-0.375000X-0.375000X0.375000X-0.375000X0*%
%ADD28RoundRect,0.125000X0.250000X0.125000X-0.250000X0.125000X-0.250000X-0.125000X0.250000X-0.125000X0*%
%ADD29RoundRect,0.100000X0.275000X0.100000X-0.275000X0.100000X-0.275000X-0.100000X0.275000X-0.100000X0*%
%ADD30RoundRect,0.200000X0.200000X0.275000X-0.200000X0.275000X-0.200000X-0.275000X0.200000X-0.275000X0*%
%ADD31RoundRect,0.250000X0.650000X-0.325000X0.650000X0.325000X-0.650000X0.325000X-0.650000X-0.325000X0*%
%ADD32RoundRect,0.250000X-0.312500X-0.625000X0.312500X-0.625000X0.312500X0.625000X-0.312500X0.625000X0*%
%ADD33RoundRect,0.200000X-0.275000X0.200000X-0.275000X-0.200000X0.275000X-0.200000X0.275000X0.200000X0*%
%ADD34RoundRect,0.375000X-0.375000X0.375000X-0.375000X-0.375000X0.375000X-0.375000X0.375000X0.375000X0*%
%ADD35RoundRect,0.125000X-0.125000X0.250000X-0.125000X-0.250000X0.125000X-0.250000X0.125000X0.250000X0*%
%ADD36RoundRect,0.100000X-0.100000X0.275000X-0.100000X-0.275000X0.100000X-0.275000X0.100000X0.275000X0*%
%ADD37RoundRect,0.225000X-0.225000X-0.250000X0.225000X-0.250000X0.225000X0.250000X-0.225000X0.250000X0*%
G04 APERTURE END LIST*
D10*
X100475000Y-64825000D03*
X100475000Y-66375000D03*
D11*
X72100000Y-63900000D03*
X72100000Y-72400000D03*
D12*
X91350000Y-53600000D03*
X89800000Y-53600000D03*
D13*
X109300000Y-60625000D03*
X109300000Y-63575000D03*
D14*
X96285000Y-60280000D03*
X96285000Y-59080000D03*
X95085000Y-60280000D03*
X95085000Y-59080000D03*
D15*
X97622500Y-60880000D03*
X97622500Y-60480000D03*
X97622500Y-60080000D03*
X97622500Y-59680000D03*
X97622500Y-59280000D03*
X97622500Y-58880000D03*
X97622500Y-58480000D03*
D16*
X96885000Y-57742500D03*
X96485000Y-57742500D03*
X96085000Y-57742500D03*
X95685000Y-57742500D03*
X95285000Y-57742500D03*
X94885000Y-57742500D03*
X94485000Y-57742500D03*
D15*
X93747500Y-58480000D03*
X93747500Y-58880000D03*
X93747500Y-59280000D03*
X93747500Y-59680000D03*
X93747500Y-60080000D03*
X93747500Y-60480000D03*
X93747500Y-60880000D03*
D16*
X94485000Y-61617500D03*
X94885000Y-61617500D03*
X95285000Y-61617500D03*
X95685000Y-61617500D03*
X96085000Y-61617500D03*
X96485000Y-61617500D03*
X96885000Y-61617500D03*
D17*
X51287500Y-67600000D03*
X53162500Y-67600000D03*
D18*
X80335000Y-75250000D03*
X90235000Y-75250000D03*
D19*
X95010000Y-76180000D03*
X97960000Y-76180000D03*
D20*
X81870000Y-64655000D03*
X81870000Y-66355000D03*
X83570000Y-64655000D03*
X83570000Y-66355000D03*
D21*
X84975000Y-63600000D03*
X84975000Y-64870000D03*
X84975000Y-66140000D03*
X84975000Y-67410000D03*
D22*
X79170000Y-63600000D03*
X79170000Y-64870000D03*
X79170000Y-66140000D03*
X79170000Y-67410000D03*
D23*
X112975000Y-80400000D03*
X112975000Y-79600000D03*
D24*
X112975000Y-78450000D03*
X112975000Y-77450000D03*
X112975000Y-76950000D03*
X112975000Y-75950000D03*
D23*
X112975000Y-74800000D03*
X112975000Y-74000000D03*
X112975000Y-74000000D03*
X112975000Y-74800000D03*
D24*
X112975000Y-75450000D03*
X112975000Y-76450000D03*
X112975000Y-77950000D03*
X112975000Y-78950000D03*
D23*
X112975000Y-79600000D03*
X112975000Y-80400000D03*
D25*
X95675000Y-69805000D03*
X95675000Y-68155000D03*
X66500000Y-64600000D03*
X66500000Y-62950000D03*
D26*
X100800000Y-58475000D03*
X100800000Y-56925000D03*
X97375000Y-69780000D03*
X97375000Y-68230000D03*
D27*
X104300000Y-77085000D03*
X104300000Y-75385000D03*
X102600000Y-77085000D03*
X102600000Y-75385000D03*
D28*
X101195000Y-78140000D03*
X101195000Y-76870000D03*
X101195000Y-75600000D03*
X101195000Y-74330000D03*
D29*
X107000000Y-78140000D03*
X107000000Y-76870000D03*
X107000000Y-75600000D03*
X107000000Y-74330000D03*
D30*
X56650000Y-67600000D03*
X55000000Y-67600000D03*
D25*
X90400000Y-65825000D03*
X90400000Y-64175000D03*
D26*
X93085000Y-72975000D03*
X93085000Y-71425000D03*
D12*
X90475000Y-60800000D03*
X88925000Y-60800000D03*
D19*
X95150000Y-81700000D03*
X98100000Y-81700000D03*
D31*
X109000000Y-74275000D03*
X109000000Y-71325000D03*
D32*
X95072500Y-73450000D03*
X97997500Y-73450000D03*
D33*
X68600000Y-79675000D03*
X68600000Y-81325000D03*
D31*
X75800000Y-57275000D03*
X75800000Y-54325000D03*
D27*
X82275000Y-59945000D03*
X82275000Y-58245000D03*
X80575000Y-59945000D03*
X80575000Y-58245000D03*
D28*
X79170000Y-61000000D03*
X79170000Y-59730000D03*
X79170000Y-58460000D03*
X79170000Y-57190000D03*
D29*
X84975000Y-61000000D03*
X84975000Y-59730000D03*
X84975000Y-58460000D03*
X84975000Y-57190000D03*
D34*
X105520000Y-59400000D03*
X103820000Y-59400000D03*
X105520000Y-61100000D03*
X103820000Y-61100000D03*
D35*
X106575000Y-62505000D03*
X105305000Y-62505000D03*
X104035000Y-62505000D03*
X102765000Y-62505000D03*
D36*
X106575000Y-56700000D03*
X105305000Y-56700000D03*
X104035000Y-56700000D03*
X102765000Y-56700000D03*
D12*
X97775000Y-64700000D03*
X96225000Y-64700000D03*
D23*
X112960000Y-61280000D03*
X112960000Y-60480000D03*
D24*
X112960000Y-59330000D03*
X112960000Y-58330000D03*
X112960000Y-57830000D03*
X112960000Y-56830000D03*
D23*
X112960000Y-55680000D03*
X112960000Y-54880000D03*
X112960000Y-54880000D03*
X112960000Y-55680000D03*
D24*
X112960000Y-56330000D03*
X112960000Y-57330000D03*
X112960000Y-58830000D03*
X112960000Y-59830000D03*
D23*
X112960000Y-60480000D03*
X112960000Y-61280000D03*
D12*
X92100000Y-55400000D03*
X90550000Y-55400000D03*
D10*
X93100000Y-81025000D03*
X93100000Y-82575000D03*
D32*
X95122500Y-79080000D03*
X98047500Y-79080000D03*
D25*
X64700000Y-64600000D03*
X64700000Y-62950000D03*
D31*
X73200000Y-57275000D03*
X73200000Y-54325000D03*
D10*
X102275000Y-64800000D03*
X102275000Y-66350000D03*
D25*
X93100000Y-67925000D03*
X93100000Y-66275000D03*
D37*
X89810000Y-57180000D03*
X91360000Y-57180000D03*
D26*
X94700000Y-66575000D03*
X94700000Y-65025000D03*
M02*
