G04 #@! TF.GenerationSoftware,KiCad,Pcbnew,8.0.3*
G04 #@! TF.CreationDate,2024-07-01T21:16:25+08:00*
G04 #@! TF.ProjectId,PD board,50442062-6f61-4726-942e-6b696361645f,rev?*
G04 #@! TF.SameCoordinates,Original*
G04 #@! TF.FileFunction,Soldermask,Top*
G04 #@! TF.FilePolarity,Negative*
%FSLAX46Y46*%
G04 Gerber Fmt 4.6, Leading zero omitted, Abs format (unit mm)*
G04 Created by KiCad (PCBNEW 8.0.3) date 2024-07-01 21:16:25*
%MOMM*%
%LPD*%
G01*
G04 APERTURE LIST*
G04 Aperture macros list*
%AMRoundRect*
0 Rectangle with rounded corners*
0 $1 Rounding radius*
0 $2 $3 $4 $5 $6 $7 $8 $9 X,Y pos of 4 corners*
0 Add a 4 corners polygon primitive as box body*
4,1,4,$2,$3,$4,$5,$6,$7,$8,$9,$2,$3,0*
0 Add four circle primitives for the rounded corners*
1,1,$1+$1,$2,$3*
1,1,$1+$1,$4,$5*
1,1,$1+$1,$6,$7*
1,1,$1+$1,$8,$9*
0 Add four rect primitives between the rounded corners*
20,1,$1+$1,$2,$3,$4,$5,0*
20,1,$1+$1,$4,$5,$6,$7,0*
20,1,$1+$1,$6,$7,$8,$9,0*
20,1,$1+$1,$8,$9,$2,$3,0*%
%AMFreePoly0*
4,1,17,2.675000,1.605000,1.875000,1.605000,1.875000,0.935000,2.675000,0.935000,2.675000,0.335000,1.875000,0.335000,1.875000,-0.335000,2.675000,-0.335000,2.675000,-0.935000,1.875000,-0.935000,1.875000,-1.605000,2.675000,-1.605000,2.675000,-2.205000,-1.875000,-2.205000,-1.875000,2.205000,2.675000,2.205000,2.675000,1.605000,2.675000,1.605000,$1*%
G04 Aperture macros list end*
%ADD10C,1.400000*%
%ADD11R,3.500000X3.500000*%
%ADD12C,3.500000*%
%ADD13RoundRect,0.225000X-0.250000X0.225000X-0.250000X-0.225000X0.250000X-0.225000X0.250000X0.225000X0*%
%ADD14RoundRect,0.375000X-2.000000X1.125000X-2.000000X-1.125000X2.000000X-1.125000X2.000000X1.125000X0*%
%ADD15RoundRect,0.225000X0.225000X0.250000X-0.225000X0.250000X-0.225000X-0.250000X0.225000X-0.250000X0*%
%ADD16RoundRect,0.250000X-0.650000X0.325000X-0.650000X-0.325000X0.650000X-0.325000X0.650000X0.325000X0*%
%ADD17RoundRect,0.062500X0.350000X0.062500X-0.350000X0.062500X-0.350000X-0.062500X0.350000X-0.062500X0*%
%ADD18RoundRect,0.062500X0.062500X0.350000X-0.062500X0.350000X-0.062500X-0.350000X0.062500X-0.350000X0*%
%ADD19R,2.400000X2.400000*%
%ADD20C,1.000000*%
%ADD21RoundRect,0.243750X-0.243750X-0.456250X0.243750X-0.456250X0.243750X0.456250X-0.243750X0.456250X0*%
%ADD22R,2.900000X5.400000*%
%ADD23RoundRect,0.250000X-0.325000X-0.650000X0.325000X-0.650000X0.325000X0.650000X-0.325000X0.650000X0*%
%ADD24FreePoly0,0.000000*%
%ADD25RoundRect,0.125000X-0.300000X-0.125000X0.300000X-0.125000X0.300000X0.125000X-0.300000X0.125000X0*%
%ADD26C,0.650000*%
%ADD27R,1.240000X0.600000*%
%ADD28R,1.240000X0.300000*%
%ADD29O,2.100000X1.000000*%
%ADD30O,1.800000X1.000000*%
%ADD31RoundRect,0.200000X0.275000X-0.200000X0.275000X0.200000X-0.275000X0.200000X-0.275000X-0.200000X0*%
%ADD32R,1.800000X1.800000*%
%ADD33C,1.800000*%
%ADD34R,1.700000X1.700000*%
%ADD35O,1.700000X1.700000*%
%ADD36RoundRect,0.225000X0.250000X-0.225000X0.250000X0.225000X-0.250000X0.225000X-0.250000X-0.225000X0*%
%ADD37FreePoly0,180.000000*%
%ADD38RoundRect,0.125000X0.300000X0.125000X-0.300000X0.125000X-0.300000X-0.125000X0.300000X-0.125000X0*%
%ADD39RoundRect,0.200000X0.200000X0.275000X-0.200000X0.275000X-0.200000X-0.275000X0.200000X-0.275000X0*%
%ADD40C,3.800000*%
%ADD41RoundRect,0.250000X0.650000X-0.325000X0.650000X0.325000X-0.650000X0.325000X-0.650000X-0.325000X0*%
%ADD42RoundRect,0.250000X-0.312500X-0.625000X0.312500X-0.625000X0.312500X0.625000X-0.312500X0.625000X0*%
%ADD43RoundRect,0.200000X-0.275000X0.200000X-0.275000X-0.200000X0.275000X-0.200000X0.275000X0.200000X0*%
%ADD44FreePoly0,270.000000*%
%ADD45RoundRect,0.125000X-0.125000X0.300000X-0.125000X-0.300000X0.125000X-0.300000X0.125000X0.300000X0*%
%ADD46RoundRect,0.225000X-0.225000X-0.250000X0.225000X-0.250000X0.225000X0.250000X-0.225000X0.250000X0*%
G04 APERTURE END LIST*
D10*
X53500000Y-81500000D03*
X53500000Y-70500000D03*
D11*
X63500000Y-73500000D03*
D12*
X63500000Y-78500000D03*
D13*
X100475000Y-64825000D03*
X100475000Y-66375000D03*
D14*
X72100000Y-63900000D03*
X72100000Y-72400000D03*
D15*
X91350000Y-53600000D03*
X89800000Y-53600000D03*
D16*
X109300000Y-60625000D03*
X109300000Y-63575000D03*
D17*
X97622500Y-60880000D03*
X97622500Y-60480000D03*
X97622500Y-60080000D03*
X97622500Y-59680000D03*
X97622500Y-59280000D03*
X97622500Y-58880000D03*
X97622500Y-58480000D03*
D18*
X96885000Y-57742500D03*
X96485000Y-57742500D03*
X96085000Y-57742500D03*
X95685000Y-57742500D03*
X95285000Y-57742500D03*
X94885000Y-57742500D03*
X94485000Y-57742500D03*
D17*
X93747500Y-58480000D03*
X93747500Y-58880000D03*
X93747500Y-59280000D03*
X93747500Y-59680000D03*
X93747500Y-60080000D03*
X93747500Y-60480000D03*
X93747500Y-60880000D03*
D18*
X94485000Y-61617500D03*
X94885000Y-61617500D03*
X95285000Y-61617500D03*
X95685000Y-61617500D03*
X96085000Y-61617500D03*
X96485000Y-61617500D03*
X96885000Y-61617500D03*
D19*
X95685000Y-59680000D03*
D20*
X76200000Y-59200000D03*
D21*
X51287500Y-67600000D03*
X53162500Y-67600000D03*
D22*
X80335000Y-75250000D03*
X90235000Y-75250000D03*
D23*
X95010000Y-76180000D03*
X97960000Y-76180000D03*
D24*
X82720000Y-65505000D03*
D25*
X79170000Y-63600000D03*
X79170000Y-64870000D03*
X79170000Y-66140000D03*
X79170000Y-67410000D03*
D26*
X114095000Y-80090000D03*
X114095000Y-74310000D03*
D27*
X112975000Y-80400000D03*
X112975000Y-79600000D03*
D28*
X112975000Y-78450000D03*
X112975000Y-77450000D03*
X112975000Y-76950000D03*
X112975000Y-75950000D03*
D27*
X112975000Y-74800000D03*
X112975000Y-74000000D03*
X112975000Y-74000000D03*
X112975000Y-74800000D03*
D28*
X112975000Y-75450000D03*
X112975000Y-76450000D03*
X112975000Y-77950000D03*
X112975000Y-78950000D03*
D27*
X112975000Y-79600000D03*
X112975000Y-80400000D03*
D29*
X113575000Y-81520000D03*
D30*
X117775000Y-81520000D03*
D29*
X113575000Y-72880000D03*
D30*
X117775000Y-72880000D03*
D31*
X95675000Y-69805000D03*
X95675000Y-68155000D03*
D32*
X74875000Y-81800000D03*
D33*
X72335000Y-81800000D03*
D31*
X66500000Y-64600000D03*
X66500000Y-62950000D03*
D34*
X60500000Y-64500000D03*
D35*
X60500000Y-61960000D03*
X60500000Y-59420000D03*
X60500000Y-56880000D03*
X60500000Y-54340000D03*
D36*
X100800000Y-58475000D03*
X100800000Y-56925000D03*
X97375000Y-69780000D03*
X97375000Y-68230000D03*
D37*
X103450000Y-76235000D03*
D38*
X107000000Y-78140000D03*
X107000000Y-76870000D03*
X107000000Y-75600000D03*
X107000000Y-74330000D03*
D39*
X56650000Y-67600000D03*
X55000000Y-67600000D03*
D31*
X90400000Y-65825000D03*
X90400000Y-64175000D03*
D36*
X93085000Y-72975000D03*
X93085000Y-71425000D03*
D15*
X90475000Y-60800000D03*
X88925000Y-60800000D03*
D40*
X104000000Y-82000000D03*
D23*
X95150000Y-81700000D03*
X98100000Y-81700000D03*
D41*
X109000000Y-74275000D03*
X109000000Y-71325000D03*
D20*
X93300000Y-79100000D03*
D42*
X95072500Y-73450000D03*
X97997500Y-73450000D03*
D43*
X68600000Y-79675000D03*
X68600000Y-81325000D03*
D41*
X75800000Y-57275000D03*
X75800000Y-54325000D03*
D37*
X81425000Y-59095000D03*
D38*
X84975000Y-61000000D03*
X84975000Y-59730000D03*
X84975000Y-58460000D03*
X84975000Y-57190000D03*
D44*
X104670000Y-60250000D03*
D45*
X106575000Y-56700000D03*
X105305000Y-56700000D03*
X104035000Y-56700000D03*
X102765000Y-56700000D03*
D40*
X104000000Y-53000000D03*
D15*
X97775000Y-64700000D03*
X96225000Y-64700000D03*
D26*
X114080000Y-60970000D03*
X114080000Y-55190000D03*
D27*
X112960000Y-61280000D03*
X112960000Y-60480000D03*
D28*
X112960000Y-59330000D03*
X112960000Y-58330000D03*
X112960000Y-57830000D03*
X112960000Y-56830000D03*
D27*
X112960000Y-55680000D03*
X112960000Y-54880000D03*
X112960000Y-54880000D03*
X112960000Y-55680000D03*
D28*
X112960000Y-56330000D03*
X112960000Y-57330000D03*
X112960000Y-58830000D03*
X112960000Y-59830000D03*
D27*
X112960000Y-60480000D03*
X112960000Y-61280000D03*
D29*
X113560000Y-62400000D03*
D30*
X117760000Y-62400000D03*
D29*
X113560000Y-53760000D03*
D30*
X117760000Y-53760000D03*
D15*
X92100000Y-55400000D03*
X90550000Y-55400000D03*
D20*
X109200000Y-78900000D03*
X109200000Y-56400000D03*
D13*
X93100000Y-81025000D03*
X93100000Y-82575000D03*
D42*
X95122500Y-79080000D03*
X98047500Y-79080000D03*
D31*
X64700000Y-64600000D03*
X64700000Y-62950000D03*
D41*
X73200000Y-57275000D03*
X73200000Y-54325000D03*
D13*
X102275000Y-64800000D03*
X102275000Y-66350000D03*
D31*
X93100000Y-67925000D03*
X93100000Y-66275000D03*
D46*
X89810000Y-57180000D03*
X91360000Y-57180000D03*
D36*
X94700000Y-66575000D03*
X94700000Y-65025000D03*
M02*
