%TF.GenerationSoftware,KiCad,Pcbnew,8.0.3*%
%TF.CreationDate,2024-07-01T21:17:27+08:00*%
%TF.ProjectId,PD board,50442062-6f61-4726-942e-6b696361645f,rev?*%
%TF.SameCoordinates,Original*%
%TF.FileFunction,Drillmap*%
%TF.FilePolarity,Positive*%
%FSLAX45Y45*%
G04 Gerber Fmt 4.5, Leading zero omitted, Abs format (unit mm)*
G04 Created by KiCad (PCBNEW 8.0.3) date 2024-07-01 21:17:27*
%MOMM*%
%LPD*%
G01*
G04 APERTURE LIST*
%ADD10C,0.050000*%
%ADD11C,0.200000*%
%ADD12C,0.100000*%
%ADD13C,0.220000*%
%ADD14C,0.240000*%
G04 APERTURE END LIST*
D10*
X5000000Y-5000000D02*
X12000000Y-5000000D01*
X12000000Y-8500000D01*
X5000000Y-8500000D01*
X5000000Y-5000000D01*
D11*
D12*
X5455000Y-6275000D02*
X5485000Y-6305000D01*
X5485000Y-6275000D02*
X5455000Y-6305000D01*
X5535000Y-5765000D02*
X5565000Y-5795000D01*
X5565000Y-5765000D02*
X5535000Y-5795000D01*
X5765000Y-6475000D02*
X5795000Y-6505000D01*
X5795000Y-6475000D02*
X5765000Y-6505000D01*
X5995000Y-7345000D02*
X6025000Y-7375000D01*
X6025000Y-7345000D02*
X5995000Y-7375000D01*
X6005000Y-7035000D02*
X6035000Y-7065000D01*
X6035000Y-7035000D02*
X6005000Y-7065000D01*
X6005000Y-7185000D02*
X6035000Y-7215000D01*
X6035000Y-7185000D02*
X6005000Y-7215000D01*
X6045000Y-7505000D02*
X6075000Y-7535000D01*
X6075000Y-7505000D02*
X6045000Y-7535000D01*
X6175000Y-6025000D02*
X6205000Y-6055000D01*
X6205000Y-6025000D02*
X6175000Y-6055000D01*
X6215000Y-7005000D02*
X6245000Y-7035000D01*
X6245000Y-7005000D02*
X6215000Y-7035000D01*
X6335000Y-6605000D02*
X6365000Y-6635000D01*
X6365000Y-6605000D02*
X6335000Y-6635000D01*
X6415000Y-7015000D02*
X6445000Y-7045000D01*
X6445000Y-7015000D02*
X6415000Y-7045000D01*
X6435000Y-5995000D02*
X6465000Y-6025000D01*
X6465000Y-5995000D02*
X6435000Y-6025000D01*
X6475000Y-5295000D02*
X6505000Y-5325000D01*
X6505000Y-5295000D02*
X6475000Y-5325000D01*
X6475000Y-5805000D02*
X6505000Y-5835000D01*
X6505000Y-5805000D02*
X6475000Y-5835000D01*
X6545000Y-6445000D02*
X6575000Y-6475000D01*
X6575000Y-6445000D02*
X6545000Y-6475000D01*
X6565000Y-7055000D02*
X6595000Y-7085000D01*
X6595000Y-7055000D02*
X6565000Y-7085000D01*
X6585000Y-6105000D02*
X6615000Y-6135000D01*
X6615000Y-6105000D02*
X6585000Y-6135000D01*
X6755000Y-7125000D02*
X6785000Y-7155000D01*
X6785000Y-7125000D02*
X6755000Y-7155000D01*
X6795000Y-6635000D02*
X6825000Y-6665000D01*
X6825000Y-6635000D02*
X6795000Y-6665000D01*
X6805000Y-6085000D02*
X6835000Y-6115000D01*
X6835000Y-6085000D02*
X6805000Y-6115000D01*
X6805000Y-6395000D02*
X6835000Y-6425000D01*
X6835000Y-6395000D02*
X6805000Y-6425000D01*
X6865000Y-5385000D02*
X6895000Y-5415000D01*
X6895000Y-5385000D02*
X6865000Y-5415000D01*
X6975000Y-5755000D02*
X7005000Y-5785000D01*
X7005000Y-5755000D02*
X6975000Y-5785000D01*
X7115000Y-5415000D02*
X7145000Y-5445000D01*
X7145000Y-5415000D02*
X7115000Y-5445000D01*
X7205000Y-5295000D02*
X7235000Y-5325000D01*
X7235000Y-5295000D02*
X7205000Y-5325000D01*
X7205000Y-6695000D02*
X7235000Y-6725000D01*
X7235000Y-6695000D02*
X7205000Y-6725000D01*
X7355000Y-5295000D02*
X7385000Y-5325000D01*
X7385000Y-5295000D02*
X7355000Y-5325000D01*
X7355000Y-7975000D02*
X7385000Y-8005000D01*
X7385000Y-7975000D02*
X7355000Y-8005000D01*
X7525000Y-5295000D02*
X7555000Y-5325000D01*
X7555000Y-5295000D02*
X7525000Y-5325000D01*
X7595000Y-6645000D02*
X7625000Y-6675000D01*
X7625000Y-6645000D02*
X7595000Y-6675000D01*
X7595000Y-6795000D02*
X7625000Y-6825000D01*
X7625000Y-6795000D02*
X7595000Y-6825000D01*
X7605000Y-7975000D02*
X7635000Y-8005000D01*
X7635000Y-7975000D02*
X7605000Y-8005000D01*
X7725000Y-6055000D02*
X7755000Y-6085000D01*
X7755000Y-6055000D02*
X7725000Y-6085000D01*
X7745000Y-6795000D02*
X7775000Y-6825000D01*
X7775000Y-6795000D02*
X7745000Y-6825000D01*
X7745000Y-6945000D02*
X7775000Y-6975000D01*
X7775000Y-6945000D02*
X7745000Y-6975000D01*
X7755000Y-5365000D02*
X7785000Y-5395000D01*
X7785000Y-5365000D02*
X7755000Y-5395000D01*
X7755000Y-6305000D02*
X7785000Y-6335000D01*
X7785000Y-6305000D02*
X7755000Y-6335000D01*
X7755000Y-6415000D02*
X7785000Y-6445000D01*
X7785000Y-6415000D02*
X7755000Y-6445000D01*
X7755000Y-6525000D02*
X7785000Y-6555000D01*
X7785000Y-6525000D02*
X7755000Y-6555000D01*
X7755000Y-6635000D02*
X7785000Y-6665000D01*
X7785000Y-6635000D02*
X7755000Y-6665000D01*
X7775000Y-6105000D02*
X7805000Y-6135000D01*
X7805000Y-6105000D02*
X7775000Y-6135000D01*
X8075000Y-8075000D02*
X8105000Y-8105000D01*
X8105000Y-8075000D02*
X8075000Y-8105000D01*
X8155000Y-5315000D02*
X8185000Y-5345000D01*
X8185000Y-5315000D02*
X8155000Y-5345000D01*
X8275000Y-6215000D02*
X8305000Y-6245000D01*
X8305000Y-6215000D02*
X8275000Y-6245000D01*
X8425000Y-5265000D02*
X8455000Y-5295000D01*
X8455000Y-5265000D02*
X8425000Y-5295000D01*
X8495000Y-5465000D02*
X8525000Y-5495000D01*
X8525000Y-5465000D02*
X8495000Y-5495000D01*
X8545000Y-7995000D02*
X8575000Y-8025000D01*
X8575000Y-7995000D02*
X8545000Y-8025000D01*
X8695000Y-5555000D02*
X8725000Y-5585000D01*
X8725000Y-5555000D02*
X8695000Y-5585000D01*
X8695000Y-6025000D02*
X8725000Y-6055000D01*
X8725000Y-6025000D02*
X8695000Y-6055000D01*
X8715000Y-6395000D02*
X8745000Y-6425000D01*
X8745000Y-6395000D02*
X8715000Y-6425000D01*
X8715000Y-7355000D02*
X8745000Y-7385000D01*
X8745000Y-7355000D02*
X8715000Y-7385000D01*
X8725000Y-6875000D02*
X8755000Y-6905000D01*
X8755000Y-6875000D02*
X8725000Y-6905000D01*
X8775000Y-6215000D02*
X8805000Y-6245000D01*
X8805000Y-6215000D02*
X8775000Y-6245000D01*
X8785000Y-6095000D02*
X8815000Y-6125000D01*
X8815000Y-6095000D02*
X8785000Y-6125000D01*
X8805000Y-5335000D02*
X8835000Y-5365000D01*
X8835000Y-5335000D02*
X8805000Y-5365000D01*
X8825000Y-5245000D02*
X8855000Y-5275000D01*
X8855000Y-5245000D02*
X8825000Y-5275000D01*
X8855000Y-6215000D02*
X8885000Y-6245000D01*
X8885000Y-6215000D02*
X8855000Y-6245000D01*
X8865000Y-5775000D02*
X8895000Y-5805000D01*
X8895000Y-5775000D02*
X8865000Y-5805000D01*
X8885000Y-6535000D02*
X8915000Y-6565000D01*
X8915000Y-6535000D02*
X8885000Y-6565000D01*
X8905000Y-6675000D02*
X8935000Y-6705000D01*
X8935000Y-6675000D02*
X8905000Y-6705000D01*
X8965000Y-5525000D02*
X8995000Y-5555000D01*
X8995000Y-5525000D02*
X8965000Y-5555000D01*
X8985000Y-5215000D02*
X9015000Y-5245000D01*
X9015000Y-5215000D02*
X8985000Y-5245000D01*
X9035000Y-6235000D02*
X9065000Y-6265000D01*
X9065000Y-6235000D02*
X9035000Y-6265000D01*
X9035000Y-6685000D02*
X9065000Y-6715000D01*
X9065000Y-6685000D02*
X9035000Y-6715000D01*
X9035000Y-7035000D02*
X9065000Y-7065000D01*
X9065000Y-7035000D02*
X9035000Y-7065000D01*
X9045000Y-6915000D02*
X9075000Y-6945000D01*
X9075000Y-6915000D02*
X9045000Y-6945000D01*
X9115000Y-7115000D02*
X9145000Y-7145000D01*
X9145000Y-7115000D02*
X9115000Y-7145000D01*
X9115000Y-8395000D02*
X9145000Y-8425000D01*
X9145000Y-8395000D02*
X9115000Y-8425000D01*
X9145000Y-6135000D02*
X9175000Y-6165000D01*
X9175000Y-6135000D02*
X9145000Y-6165000D01*
X9195000Y-6395000D02*
X9225000Y-6425000D01*
X9225000Y-6395000D02*
X9195000Y-6425000D01*
X9205000Y-7005000D02*
X9235000Y-7035000D01*
X9235000Y-7005000D02*
X9205000Y-7035000D01*
X9276375Y-6156375D02*
X9306375Y-6186375D01*
X9306375Y-6156375D02*
X9276375Y-6186375D01*
X9285000Y-6335000D02*
X9315000Y-6365000D01*
X9315000Y-6335000D02*
X9285000Y-6365000D01*
X9362500Y-6245000D02*
X9392500Y-6275000D01*
X9392500Y-6245000D02*
X9362500Y-6275000D01*
X9365000Y-5275000D02*
X9395000Y-5305000D01*
X9395000Y-5275000D02*
X9365000Y-5305000D01*
X9375000Y-6885000D02*
X9405000Y-6915000D01*
X9405000Y-6885000D02*
X9375000Y-6915000D01*
X9415000Y-6805000D02*
X9445000Y-6835000D01*
X9445000Y-6805000D02*
X9415000Y-6835000D01*
X9465000Y-5865000D02*
X9495000Y-5895000D01*
X9495000Y-5865000D02*
X9465000Y-5895000D01*
X9465000Y-6035000D02*
X9495000Y-6065000D01*
X9495000Y-6035000D02*
X9465000Y-6065000D01*
X9472500Y-7105000D02*
X9502500Y-7135000D01*
X9502500Y-7105000D02*
X9472500Y-7135000D01*
X9525000Y-5315000D02*
X9555000Y-5345000D01*
X9555000Y-5315000D02*
X9525000Y-5345000D01*
X9555000Y-5865000D02*
X9585000Y-5895000D01*
X9585000Y-5865000D02*
X9555000Y-5895000D01*
X9555000Y-6035000D02*
X9585000Y-6065000D01*
X9585000Y-6035000D02*
X9555000Y-6065000D01*
X9563500Y-7210000D02*
X9593500Y-7240000D01*
X9593500Y-7210000D02*
X9563500Y-7240000D01*
X9635000Y-5865000D02*
X9665000Y-5895000D01*
X9665000Y-5865000D02*
X9635000Y-5895000D01*
X9635000Y-6035000D02*
X9665000Y-6065000D01*
X9665000Y-6035000D02*
X9635000Y-6065000D01*
X9645000Y-8035000D02*
X9675000Y-8065000D01*
X9675000Y-8035000D02*
X9645000Y-8065000D01*
X9672500Y-7885000D02*
X9702500Y-7915000D01*
X9702500Y-7885000D02*
X9672500Y-7915000D01*
X9675000Y-8335000D02*
X9705000Y-8365000D01*
X9705000Y-8335000D02*
X9675000Y-8365000D01*
X9685000Y-7475000D02*
X9715000Y-7505000D01*
X9715000Y-7475000D02*
X9685000Y-7505000D01*
X9712500Y-5505000D02*
X9742500Y-5535000D01*
X9742500Y-5505000D02*
X9712500Y-5535000D01*
X9722500Y-7115000D02*
X9752500Y-7145000D01*
X9752500Y-7115000D02*
X9722500Y-7145000D01*
X9742500Y-5735000D02*
X9772500Y-5765000D01*
X9772500Y-5735000D02*
X9742500Y-5765000D01*
X9745000Y-6685000D02*
X9775000Y-6715000D01*
X9775000Y-6685000D02*
X9745000Y-6715000D01*
X9755000Y-5305000D02*
X9785000Y-5335000D01*
X9785000Y-5305000D02*
X9755000Y-5335000D01*
X9825000Y-8335000D02*
X9855000Y-8365000D01*
X9855000Y-8335000D02*
X9825000Y-8365000D01*
X9835000Y-6455000D02*
X9865000Y-6485000D01*
X9865000Y-6455000D02*
X9835000Y-6485000D01*
X9835000Y-6545000D02*
X9865000Y-6575000D01*
X9865000Y-6545000D02*
X9835000Y-6575000D01*
X9842500Y-5715000D02*
X9872500Y-5745000D01*
X9872500Y-5715000D02*
X9842500Y-5745000D01*
X9842500Y-6865000D02*
X9872500Y-6895000D01*
X9872500Y-6865000D02*
X9842500Y-6895000D01*
X9893500Y-5823000D02*
X9923500Y-5853000D01*
X9923500Y-5823000D02*
X9893500Y-5853000D01*
X9905000Y-7495000D02*
X9935000Y-7525000D01*
X9935000Y-7495000D02*
X9905000Y-7525000D01*
X9905000Y-7585000D02*
X9935000Y-7615000D01*
X9935000Y-7585000D02*
X9905000Y-7615000D01*
X9905000Y-7675000D02*
X9935000Y-7705000D01*
X9935000Y-7675000D02*
X9905000Y-7705000D01*
X9915000Y-8265000D02*
X9945000Y-8295000D01*
X9945000Y-8265000D02*
X9915000Y-8295000D01*
X9925000Y-8165000D02*
X9955000Y-8195000D01*
X9955000Y-8165000D02*
X9925000Y-8195000D01*
X9935000Y-6935000D02*
X9965000Y-6965000D01*
X9965000Y-6935000D02*
X9935000Y-6965000D01*
X9952500Y-5585000D02*
X9982500Y-5615000D01*
X9982500Y-5585000D02*
X9952500Y-5615000D01*
X9952500Y-6305000D02*
X9982500Y-6335000D01*
X9982500Y-6305000D02*
X9952500Y-6335000D01*
X9955000Y-6045000D02*
X9985000Y-6075000D01*
X9985000Y-6045000D02*
X9955000Y-6075000D01*
X9975000Y-6725000D02*
X10005000Y-6755000D01*
X10005000Y-6725000D02*
X9975000Y-6755000D01*
X9985000Y-7475000D02*
X10015000Y-7505000D01*
X10015000Y-7475000D02*
X9985000Y-7505000D01*
X9985000Y-7575000D02*
X10015000Y-7605000D01*
X10015000Y-7575000D02*
X9985000Y-7605000D01*
X9985000Y-7665000D02*
X10015000Y-7695000D01*
X10015000Y-7665000D02*
X9985000Y-7695000D01*
X10005000Y-8095000D02*
X10035000Y-8125000D01*
X10035000Y-8095000D02*
X10005000Y-8125000D01*
X10015000Y-5305000D02*
X10045000Y-5335000D01*
X10045000Y-5305000D02*
X10015000Y-5335000D01*
X10075000Y-5595000D02*
X10105000Y-5625000D01*
X10105000Y-5595000D02*
X10075000Y-5625000D01*
X10085000Y-6065000D02*
X10115000Y-6095000D01*
X10115000Y-6065000D02*
X10085000Y-6095000D01*
X10095000Y-6715000D02*
X10125000Y-6745000D01*
X10125000Y-6715000D02*
X10095000Y-6745000D01*
X10125000Y-6615000D02*
X10155000Y-6645000D01*
X10155000Y-6615000D02*
X10125000Y-6645000D01*
X10127500Y-6340000D02*
X10157500Y-6370000D01*
X10157500Y-6340000D02*
X10127500Y-6370000D01*
X10145000Y-5665000D02*
X10175000Y-5695000D01*
X10175000Y-5665000D02*
X10145000Y-5695000D01*
X10332500Y-6595000D02*
X10362500Y-6625000D01*
X10362500Y-6595000D02*
X10332500Y-6625000D01*
X10345000Y-7305000D02*
X10375000Y-7335000D01*
X10375000Y-7305000D02*
X10345000Y-7335000D01*
X10585000Y-7545000D02*
X10615000Y-7575000D01*
X10615000Y-7545000D02*
X10585000Y-7575000D01*
X10705000Y-8195000D02*
X10735000Y-8225000D01*
X10735000Y-8195000D02*
X10705000Y-8225000D01*
X10725000Y-7115000D02*
X10755000Y-7145000D01*
X10755000Y-7115000D02*
X10725000Y-7145000D01*
X10805000Y-5285000D02*
X10835000Y-5315000D01*
X10835000Y-5285000D02*
X10805000Y-5315000D01*
X10875000Y-6455000D02*
X10905000Y-6485000D01*
X10905000Y-6455000D02*
X10875000Y-6485000D01*
X10875000Y-6955000D02*
X10905000Y-6985000D01*
X10905000Y-6955000D02*
X10875000Y-6985000D01*
X10885000Y-7245000D02*
X10915000Y-7275000D01*
X10915000Y-7245000D02*
X10885000Y-7275000D01*
X10935000Y-8175000D02*
X10965000Y-8205000D01*
X10965000Y-8175000D02*
X10935000Y-8205000D01*
X10955000Y-5415000D02*
X10985000Y-5445000D01*
X10985000Y-5415000D02*
X10955000Y-5445000D01*
X10955000Y-6825000D02*
X10985000Y-6855000D01*
X10985000Y-6825000D02*
X10955000Y-6855000D01*
X10965000Y-6695000D02*
X10995000Y-6725000D01*
X10995000Y-6695000D02*
X10965000Y-6725000D01*
X10975000Y-6565000D02*
X11005000Y-6595000D01*
X11005000Y-6565000D02*
X10975000Y-6595000D01*
X11035000Y-6475000D02*
X11065000Y-6505000D01*
X11065000Y-6475000D02*
X11035000Y-6505000D01*
X11035000Y-7005000D02*
X11065000Y-7035000D01*
X11065000Y-7005000D02*
X11035000Y-7035000D01*
X11045000Y-7675000D02*
X11075000Y-7705000D01*
X11075000Y-7675000D02*
X11045000Y-7705000D01*
X11055000Y-7185000D02*
X11085000Y-7215000D01*
X11085000Y-7185000D02*
X11055000Y-7215000D01*
X11075000Y-5755000D02*
X11105000Y-5785000D01*
X11105000Y-5755000D02*
X11075000Y-5785000D01*
X11075000Y-7585000D02*
X11105000Y-7615000D01*
X11105000Y-7585000D02*
X11075000Y-7615000D01*
X11095000Y-5665000D02*
X11125000Y-5695000D01*
X11125000Y-5665000D02*
X11095000Y-5695000D01*
X11105000Y-5415000D02*
X11135000Y-5445000D01*
X11135000Y-5415000D02*
X11105000Y-5445000D01*
X11105000Y-6355000D02*
X11135000Y-6385000D01*
X11135000Y-6355000D02*
X11105000Y-6385000D01*
X11115000Y-6235000D02*
X11145000Y-6265000D01*
X11145000Y-6235000D02*
X11115000Y-6265000D01*
X11115000Y-7285000D02*
X11145000Y-7315000D01*
X11145000Y-7285000D02*
X11115000Y-7315000D01*
X11125000Y-8085000D02*
X11155000Y-8115000D01*
X11155000Y-8085000D02*
X11125000Y-8115000D01*
X11135000Y-7745000D02*
X11165000Y-7775000D01*
X11165000Y-7745000D02*
X11135000Y-7775000D01*
X11145000Y-5275000D02*
X11175000Y-5305000D01*
X11175000Y-5275000D02*
X11145000Y-5305000D01*
X11165000Y-7105000D02*
X11195000Y-7135000D01*
X11195000Y-7105000D02*
X11165000Y-7135000D01*
X11165000Y-8185000D02*
X11195000Y-8215000D01*
X11195000Y-8185000D02*
X11165000Y-8215000D01*
X11255000Y-6395000D02*
X11285000Y-6425000D01*
X11285000Y-6395000D02*
X11255000Y-6425000D01*
X11285000Y-5215000D02*
X11315000Y-5245000D01*
X11315000Y-5215000D02*
X11285000Y-5245000D01*
X11315000Y-7105000D02*
X11345000Y-7135000D01*
X11345000Y-7105000D02*
X11315000Y-7135000D01*
X11395000Y-6385000D02*
X11425000Y-6415000D01*
X11425000Y-6385000D02*
X11395000Y-6415000D01*
X11433500Y-5873000D02*
X11463500Y-5903000D01*
X11463500Y-5873000D02*
X11433500Y-5903000D01*
X11461000Y-5688000D02*
X11491000Y-5718000D01*
X11491000Y-5688000D02*
X11461000Y-5718000D01*
X11462500Y-7685000D02*
X11492500Y-7715000D01*
X11492500Y-7685000D02*
X11462500Y-7715000D01*
X11515000Y-5215000D02*
X11545000Y-5245000D01*
X11545000Y-5215000D02*
X11515000Y-5245000D01*
X11515000Y-5505000D02*
X11545000Y-5535000D01*
X11545000Y-5505000D02*
X11515000Y-5535000D01*
X11515000Y-6065000D02*
X11545000Y-6095000D01*
X11545000Y-6065000D02*
X11515000Y-6095000D01*
X11515000Y-6415000D02*
X11545000Y-6445000D01*
X11545000Y-6415000D02*
X11515000Y-6445000D01*
X11515000Y-7115000D02*
X11545000Y-7145000D01*
X11545000Y-7115000D02*
X11515000Y-7145000D01*
X11525000Y-8065000D02*
X11555000Y-8095000D01*
X11555000Y-8065000D02*
X11525000Y-8095000D01*
X11525000Y-8205000D02*
X11555000Y-8235000D01*
X11555000Y-8205000D02*
X11525000Y-8235000D01*
X11535000Y-7905000D02*
X11565000Y-7935000D01*
X11565000Y-7905000D02*
X11535000Y-7935000D01*
X11545000Y-6215000D02*
X11575000Y-6245000D01*
X11575000Y-6215000D02*
X11545000Y-6245000D01*
X11565000Y-5375000D02*
X11595000Y-5405000D01*
X11595000Y-5375000D02*
X11565000Y-5405000D01*
X11565000Y-7245000D02*
X11595000Y-7275000D01*
X11595000Y-7245000D02*
X11565000Y-7275000D01*
X11595000Y-7415000D02*
X11625000Y-7445000D01*
X11625000Y-7415000D02*
X11595000Y-7445000D01*
X11665000Y-7545000D02*
X11695000Y-7575000D01*
X11695000Y-7545000D02*
X11665000Y-7575000D01*
X11665000Y-7785000D02*
X11695000Y-7815000D01*
X11695000Y-7785000D02*
X11665000Y-7815000D01*
X11386000Y-5376000D02*
G75*
G02*
X11326000Y-5376000I-30000J0D01*
G01*
X11326000Y-5376000D02*
G75*
G02*
X11386000Y-5376000I30000J0D01*
G01*
X11301000Y-5406000D02*
X11411000Y-5406000D01*
X11411000Y-5346000D02*
G75*
G02*
X11411000Y-5406000I0J-30000D01*
G01*
X11411000Y-5346000D02*
X11301000Y-5346000D01*
X11301000Y-5346000D02*
G75*
G03*
X11301000Y-5406000I0J-30000D01*
G01*
X11386000Y-6240000D02*
G75*
G02*
X11326000Y-6240000I-30000J0D01*
G01*
X11326000Y-6240000D02*
G75*
G02*
X11386000Y-6240000I30000J0D01*
G01*
X11301000Y-6270000D02*
X11411000Y-6270000D01*
X11411000Y-6210000D02*
G75*
G02*
X11411000Y-6270000I0J-30000D01*
G01*
X11411000Y-6210000D02*
X11301000Y-6210000D01*
X11301000Y-6210000D02*
G75*
G03*
X11301000Y-6270000I0J-30000D01*
G01*
X11387500Y-7288000D02*
G75*
G02*
X11327500Y-7288000I-30000J0D01*
G01*
X11327500Y-7288000D02*
G75*
G02*
X11387500Y-7288000I30000J0D01*
G01*
X11302500Y-7318000D02*
X11412500Y-7318000D01*
X11412500Y-7258000D02*
G75*
G02*
X11412500Y-7318000I0J-30000D01*
G01*
X11412500Y-7258000D02*
X11302500Y-7258000D01*
X11302500Y-7258000D02*
G75*
G03*
X11302500Y-7318000I0J-30000D01*
G01*
X11387500Y-8152000D02*
G75*
G02*
X11327500Y-8152000I-30000J0D01*
G01*
X11327500Y-8152000D02*
G75*
G02*
X11387500Y-8152000I30000J0D01*
G01*
X11302500Y-8182000D02*
X11412500Y-8182000D01*
X11412500Y-8122000D02*
G75*
G02*
X11412500Y-8182000I0J-30000D01*
G01*
X11412500Y-8122000D02*
X11302500Y-8122000D01*
X11302500Y-8122000D02*
G75*
G03*
X11302500Y-8182000I0J-30000D01*
G01*
X11806000Y-5376000D02*
G75*
G02*
X11746000Y-5376000I-30000J0D01*
G01*
X11746000Y-5376000D02*
G75*
G02*
X11806000Y-5376000I30000J0D01*
G01*
X11736000Y-5406000D02*
X11816000Y-5406000D01*
X11816000Y-5346000D02*
G75*
G02*
X11816000Y-5406000I0J-30000D01*
G01*
X11816000Y-5346000D02*
X11736000Y-5346000D01*
X11736000Y-5346000D02*
G75*
G03*
X11736000Y-5406000I0J-30000D01*
G01*
X11806000Y-6240000D02*
G75*
G02*
X11746000Y-6240000I-30000J0D01*
G01*
X11746000Y-6240000D02*
G75*
G02*
X11806000Y-6240000I30000J0D01*
G01*
X11736000Y-6270000D02*
X11816000Y-6270000D01*
X11816000Y-6210000D02*
G75*
G02*
X11816000Y-6270000I0J-30000D01*
G01*
X11816000Y-6210000D02*
X11736000Y-6210000D01*
X11736000Y-6210000D02*
G75*
G03*
X11736000Y-6270000I0J-30000D01*
G01*
X11807500Y-7288000D02*
G75*
G02*
X11747500Y-7288000I-30000J0D01*
G01*
X11747500Y-7288000D02*
G75*
G02*
X11807500Y-7288000I30000J0D01*
G01*
X11737500Y-7318000D02*
X11817500Y-7318000D01*
X11817500Y-7258000D02*
G75*
G02*
X11817500Y-7318000I0J-30000D01*
G01*
X11817500Y-7258000D02*
X11737500Y-7258000D01*
X11737500Y-7258000D02*
G75*
G03*
X11737500Y-7318000I0J-30000D01*
G01*
X11807500Y-8152000D02*
G75*
G02*
X11747500Y-8152000I-30000J0D01*
G01*
X11747500Y-8152000D02*
G75*
G02*
X11807500Y-8152000I30000J0D01*
G01*
X11737500Y-8182000D02*
X11817500Y-8182000D01*
X11817500Y-8122000D02*
G75*
G02*
X11817500Y-8182000I0J-30000D01*
G01*
X11817500Y-8122000D02*
X11737500Y-8122000D01*
X11737500Y-8122000D02*
G75*
G03*
X11737500Y-8182000I0J-30000D01*
G01*
X7233500Y-8135000D02*
X7233500Y-8225000D01*
X7188500Y-8180000D02*
X7278500Y-8180000D01*
X7487500Y-8135000D02*
X7487500Y-8225000D01*
X7442500Y-8180000D02*
X7532500Y-8180000D01*
X5385356Y-7085356D02*
X5385356Y-7014644D01*
X5314644Y-7014644D01*
X5314644Y-7085356D01*
X5385356Y-7085356D01*
X5385356Y-8185356D02*
X5385356Y-8114644D01*
X5314644Y-8114644D01*
X5314644Y-8185356D01*
X5385356Y-8185356D01*
X6085356Y-5469356D02*
X6085356Y-5398644D01*
X6014644Y-5398644D01*
X6014644Y-5469356D01*
X6085356Y-5469356D01*
X6085356Y-5723356D02*
X6085356Y-5652644D01*
X6014644Y-5652644D01*
X6014644Y-5723356D01*
X6085356Y-5723356D01*
X6085356Y-5977356D02*
X6085356Y-5906644D01*
X6014644Y-5906644D01*
X6014644Y-5977356D01*
X6085356Y-5977356D01*
X6085356Y-6231356D02*
X6085356Y-6160644D01*
X6014644Y-6160644D01*
X6014644Y-6231356D01*
X6085356Y-6231356D01*
X6085356Y-6485356D02*
X6085356Y-6414644D01*
X6014644Y-6414644D01*
X6014644Y-6485356D01*
X6085356Y-6485356D01*
D13*
X10400000Y-5410000D02*
X10510000Y-5300000D01*
X10400000Y-5190000D01*
X10290000Y-5300000D01*
X10400000Y-5410000D01*
X10400000Y-8310000D02*
X10510000Y-8200000D01*
X10400000Y-8090000D01*
X10290000Y-8200000D01*
X10400000Y-8310000D01*
D14*
X6230000Y-7230000D02*
X6470000Y-7470000D01*
X6470000Y-7230000D02*
X6230000Y-7470000D01*
X6470000Y-7350000D02*
G75*
G02*
X6230000Y-7350000I-120000J0D01*
G01*
X6230000Y-7350000D02*
G75*
G02*
X6470000Y-7350000I120000J0D01*
G01*
X6230000Y-7730000D02*
X6470000Y-7970000D01*
X6470000Y-7730000D02*
X6230000Y-7970000D01*
X6470000Y-7850000D02*
G75*
G02*
X6230000Y-7850000I-120000J0D01*
G01*
X6230000Y-7850000D02*
G75*
G02*
X6470000Y-7850000I120000J0D01*
G01*
D11*
X5258277Y-8813984D02*
X5258277Y-8613984D01*
X5258277Y-8613984D02*
X5305896Y-8613984D01*
X5305896Y-8613984D02*
X5334467Y-8623508D01*
X5334467Y-8623508D02*
X5353515Y-8642555D01*
X5353515Y-8642555D02*
X5363039Y-8661603D01*
X5363039Y-8661603D02*
X5372563Y-8699698D01*
X5372563Y-8699698D02*
X5372563Y-8728270D01*
X5372563Y-8728270D02*
X5363039Y-8766365D01*
X5363039Y-8766365D02*
X5353515Y-8785412D01*
X5353515Y-8785412D02*
X5334467Y-8804460D01*
X5334467Y-8804460D02*
X5305896Y-8813984D01*
X5305896Y-8813984D02*
X5258277Y-8813984D01*
X5458277Y-8813984D02*
X5458277Y-8680650D01*
X5458277Y-8718746D02*
X5467801Y-8699698D01*
X5467801Y-8699698D02*
X5477324Y-8690174D01*
X5477324Y-8690174D02*
X5496372Y-8680650D01*
X5496372Y-8680650D02*
X5515420Y-8680650D01*
X5582086Y-8813984D02*
X5582086Y-8680650D01*
X5582086Y-8613984D02*
X5572563Y-8623508D01*
X5572563Y-8623508D02*
X5582086Y-8633031D01*
X5582086Y-8633031D02*
X5591610Y-8623508D01*
X5591610Y-8623508D02*
X5582086Y-8613984D01*
X5582086Y-8613984D02*
X5582086Y-8633031D01*
X5705896Y-8813984D02*
X5686848Y-8804460D01*
X5686848Y-8804460D02*
X5677324Y-8785412D01*
X5677324Y-8785412D02*
X5677324Y-8613984D01*
X5810658Y-8813984D02*
X5791610Y-8804460D01*
X5791610Y-8804460D02*
X5782086Y-8785412D01*
X5782086Y-8785412D02*
X5782086Y-8613984D01*
X6039229Y-8813984D02*
X6039229Y-8613984D01*
X6039229Y-8613984D02*
X6105896Y-8756841D01*
X6105896Y-8756841D02*
X6172562Y-8613984D01*
X6172562Y-8613984D02*
X6172562Y-8813984D01*
X6353515Y-8813984D02*
X6353515Y-8709222D01*
X6353515Y-8709222D02*
X6343991Y-8690174D01*
X6343991Y-8690174D02*
X6324943Y-8680650D01*
X6324943Y-8680650D02*
X6286848Y-8680650D01*
X6286848Y-8680650D02*
X6267801Y-8690174D01*
X6353515Y-8804460D02*
X6334467Y-8813984D01*
X6334467Y-8813984D02*
X6286848Y-8813984D01*
X6286848Y-8813984D02*
X6267801Y-8804460D01*
X6267801Y-8804460D02*
X6258277Y-8785412D01*
X6258277Y-8785412D02*
X6258277Y-8766365D01*
X6258277Y-8766365D02*
X6267801Y-8747317D01*
X6267801Y-8747317D02*
X6286848Y-8737793D01*
X6286848Y-8737793D02*
X6334467Y-8737793D01*
X6334467Y-8737793D02*
X6353515Y-8728270D01*
X6448753Y-8680650D02*
X6448753Y-8880650D01*
X6448753Y-8690174D02*
X6467801Y-8680650D01*
X6467801Y-8680650D02*
X6505896Y-8680650D01*
X6505896Y-8680650D02*
X6524943Y-8690174D01*
X6524943Y-8690174D02*
X6534467Y-8699698D01*
X6534467Y-8699698D02*
X6543991Y-8718746D01*
X6543991Y-8718746D02*
X6543991Y-8775889D01*
X6543991Y-8775889D02*
X6534467Y-8794936D01*
X6534467Y-8794936D02*
X6524943Y-8804460D01*
X6524943Y-8804460D02*
X6505896Y-8813984D01*
X6505896Y-8813984D02*
X6467801Y-8813984D01*
X6467801Y-8813984D02*
X6448753Y-8804460D01*
X6629705Y-8794936D02*
X6639229Y-8804460D01*
X6639229Y-8804460D02*
X6629705Y-8813984D01*
X6629705Y-8813984D02*
X6620182Y-8804460D01*
X6620182Y-8804460D02*
X6629705Y-8794936D01*
X6629705Y-8794936D02*
X6629705Y-8813984D01*
X6629705Y-8690174D02*
X6639229Y-8699698D01*
X6639229Y-8699698D02*
X6629705Y-8709222D01*
X6629705Y-8709222D02*
X6620182Y-8699698D01*
X6620182Y-8699698D02*
X6629705Y-8690174D01*
X6629705Y-8690174D02*
X6629705Y-8709222D01*
D12*
X4967500Y-9127500D02*
X4997500Y-9157500D01*
X4997500Y-9127500D02*
X4967500Y-9157500D01*
D11*
X5296372Y-9033984D02*
X5315420Y-9033984D01*
X5315420Y-9033984D02*
X5334467Y-9043508D01*
X5334467Y-9043508D02*
X5343991Y-9053031D01*
X5343991Y-9053031D02*
X5353515Y-9072079D01*
X5353515Y-9072079D02*
X5363039Y-9110174D01*
X5363039Y-9110174D02*
X5363039Y-9157793D01*
X5363039Y-9157793D02*
X5353515Y-9195889D01*
X5353515Y-9195889D02*
X5343991Y-9214936D01*
X5343991Y-9214936D02*
X5334467Y-9224460D01*
X5334467Y-9224460D02*
X5315420Y-9233984D01*
X5315420Y-9233984D02*
X5296372Y-9233984D01*
X5296372Y-9233984D02*
X5277324Y-9224460D01*
X5277324Y-9224460D02*
X5267801Y-9214936D01*
X5267801Y-9214936D02*
X5258277Y-9195889D01*
X5258277Y-9195889D02*
X5248753Y-9157793D01*
X5248753Y-9157793D02*
X5248753Y-9110174D01*
X5248753Y-9110174D02*
X5258277Y-9072079D01*
X5258277Y-9072079D02*
X5267801Y-9053031D01*
X5267801Y-9053031D02*
X5277324Y-9043508D01*
X5277324Y-9043508D02*
X5296372Y-9033984D01*
X5448753Y-9214936D02*
X5458277Y-9224460D01*
X5458277Y-9224460D02*
X5448753Y-9233984D01*
X5448753Y-9233984D02*
X5439229Y-9224460D01*
X5439229Y-9224460D02*
X5448753Y-9214936D01*
X5448753Y-9214936D02*
X5448753Y-9233984D01*
X5524944Y-9033984D02*
X5648753Y-9033984D01*
X5648753Y-9033984D02*
X5582086Y-9110174D01*
X5582086Y-9110174D02*
X5610658Y-9110174D01*
X5610658Y-9110174D02*
X5629705Y-9119698D01*
X5629705Y-9119698D02*
X5639229Y-9129222D01*
X5639229Y-9129222D02*
X5648753Y-9148270D01*
X5648753Y-9148270D02*
X5648753Y-9195889D01*
X5648753Y-9195889D02*
X5639229Y-9214936D01*
X5639229Y-9214936D02*
X5629705Y-9224460D01*
X5629705Y-9224460D02*
X5610658Y-9233984D01*
X5610658Y-9233984D02*
X5553515Y-9233984D01*
X5553515Y-9233984D02*
X5534467Y-9224460D01*
X5534467Y-9224460D02*
X5524944Y-9214936D01*
X5772562Y-9033984D02*
X5791610Y-9033984D01*
X5791610Y-9033984D02*
X5810658Y-9043508D01*
X5810658Y-9043508D02*
X5820182Y-9053031D01*
X5820182Y-9053031D02*
X5829705Y-9072079D01*
X5829705Y-9072079D02*
X5839229Y-9110174D01*
X5839229Y-9110174D02*
X5839229Y-9157793D01*
X5839229Y-9157793D02*
X5829705Y-9195889D01*
X5829705Y-9195889D02*
X5820182Y-9214936D01*
X5820182Y-9214936D02*
X5810658Y-9224460D01*
X5810658Y-9224460D02*
X5791610Y-9233984D01*
X5791610Y-9233984D02*
X5772562Y-9233984D01*
X5772562Y-9233984D02*
X5753515Y-9224460D01*
X5753515Y-9224460D02*
X5743991Y-9214936D01*
X5743991Y-9214936D02*
X5734467Y-9195889D01*
X5734467Y-9195889D02*
X5724943Y-9157793D01*
X5724943Y-9157793D02*
X5724943Y-9110174D01*
X5724943Y-9110174D02*
X5734467Y-9072079D01*
X5734467Y-9072079D02*
X5743991Y-9053031D01*
X5743991Y-9053031D02*
X5753515Y-9043508D01*
X5753515Y-9043508D02*
X5772562Y-9033984D01*
X5963039Y-9033984D02*
X5982086Y-9033984D01*
X5982086Y-9033984D02*
X6001134Y-9043508D01*
X6001134Y-9043508D02*
X6010658Y-9053031D01*
X6010658Y-9053031D02*
X6020182Y-9072079D01*
X6020182Y-9072079D02*
X6029705Y-9110174D01*
X6029705Y-9110174D02*
X6029705Y-9157793D01*
X6029705Y-9157793D02*
X6020182Y-9195889D01*
X6020182Y-9195889D02*
X6010658Y-9214936D01*
X6010658Y-9214936D02*
X6001134Y-9224460D01*
X6001134Y-9224460D02*
X5982086Y-9233984D01*
X5982086Y-9233984D02*
X5963039Y-9233984D01*
X5963039Y-9233984D02*
X5943991Y-9224460D01*
X5943991Y-9224460D02*
X5934467Y-9214936D01*
X5934467Y-9214936D02*
X5924943Y-9195889D01*
X5924943Y-9195889D02*
X5915420Y-9157793D01*
X5915420Y-9157793D02*
X5915420Y-9110174D01*
X5915420Y-9110174D02*
X5924943Y-9072079D01*
X5924943Y-9072079D02*
X5934467Y-9053031D01*
X5934467Y-9053031D02*
X5943991Y-9043508D01*
X5943991Y-9043508D02*
X5963039Y-9033984D01*
X6115420Y-9233984D02*
X6115420Y-9100650D01*
X6115420Y-9119698D02*
X6124943Y-9110174D01*
X6124943Y-9110174D02*
X6143991Y-9100650D01*
X6143991Y-9100650D02*
X6172563Y-9100650D01*
X6172563Y-9100650D02*
X6191610Y-9110174D01*
X6191610Y-9110174D02*
X6201134Y-9129222D01*
X6201134Y-9129222D02*
X6201134Y-9233984D01*
X6201134Y-9129222D02*
X6210658Y-9110174D01*
X6210658Y-9110174D02*
X6229705Y-9100650D01*
X6229705Y-9100650D02*
X6258277Y-9100650D01*
X6258277Y-9100650D02*
X6277324Y-9110174D01*
X6277324Y-9110174D02*
X6286848Y-9129222D01*
X6286848Y-9129222D02*
X6286848Y-9233984D01*
X6382086Y-9233984D02*
X6382086Y-9100650D01*
X6382086Y-9119698D02*
X6391610Y-9110174D01*
X6391610Y-9110174D02*
X6410658Y-9100650D01*
X6410658Y-9100650D02*
X6439229Y-9100650D01*
X6439229Y-9100650D02*
X6458277Y-9110174D01*
X6458277Y-9110174D02*
X6467801Y-9129222D01*
X6467801Y-9129222D02*
X6467801Y-9233984D01*
X6467801Y-9129222D02*
X6477324Y-9110174D01*
X6477324Y-9110174D02*
X6496372Y-9100650D01*
X6496372Y-9100650D02*
X6524943Y-9100650D01*
X6524943Y-9100650D02*
X6543991Y-9110174D01*
X6543991Y-9110174D02*
X6553515Y-9129222D01*
X6553515Y-9129222D02*
X6553515Y-9233984D01*
X6943991Y-9024460D02*
X6772563Y-9281603D01*
X7201134Y-9033984D02*
X7220182Y-9033984D01*
X7220182Y-9033984D02*
X7239229Y-9043508D01*
X7239229Y-9043508D02*
X7248753Y-9053031D01*
X7248753Y-9053031D02*
X7258277Y-9072079D01*
X7258277Y-9072079D02*
X7267801Y-9110174D01*
X7267801Y-9110174D02*
X7267801Y-9157793D01*
X7267801Y-9157793D02*
X7258277Y-9195889D01*
X7258277Y-9195889D02*
X7248753Y-9214936D01*
X7248753Y-9214936D02*
X7239229Y-9224460D01*
X7239229Y-9224460D02*
X7220182Y-9233984D01*
X7220182Y-9233984D02*
X7201134Y-9233984D01*
X7201134Y-9233984D02*
X7182086Y-9224460D01*
X7182086Y-9224460D02*
X7172563Y-9214936D01*
X7172563Y-9214936D02*
X7163039Y-9195889D01*
X7163039Y-9195889D02*
X7153515Y-9157793D01*
X7153515Y-9157793D02*
X7153515Y-9110174D01*
X7153515Y-9110174D02*
X7163039Y-9072079D01*
X7163039Y-9072079D02*
X7172563Y-9053031D01*
X7172563Y-9053031D02*
X7182086Y-9043508D01*
X7182086Y-9043508D02*
X7201134Y-9033984D01*
X7353515Y-9214936D02*
X7363039Y-9224460D01*
X7363039Y-9224460D02*
X7353515Y-9233984D01*
X7353515Y-9233984D02*
X7343991Y-9224460D01*
X7343991Y-9224460D02*
X7353515Y-9214936D01*
X7353515Y-9214936D02*
X7353515Y-9233984D01*
X7486848Y-9033984D02*
X7505896Y-9033984D01*
X7505896Y-9033984D02*
X7524944Y-9043508D01*
X7524944Y-9043508D02*
X7534467Y-9053031D01*
X7534467Y-9053031D02*
X7543991Y-9072079D01*
X7543991Y-9072079D02*
X7553515Y-9110174D01*
X7553515Y-9110174D02*
X7553515Y-9157793D01*
X7553515Y-9157793D02*
X7543991Y-9195889D01*
X7543991Y-9195889D02*
X7534467Y-9214936D01*
X7534467Y-9214936D02*
X7524944Y-9224460D01*
X7524944Y-9224460D02*
X7505896Y-9233984D01*
X7505896Y-9233984D02*
X7486848Y-9233984D01*
X7486848Y-9233984D02*
X7467801Y-9224460D01*
X7467801Y-9224460D02*
X7458277Y-9214936D01*
X7458277Y-9214936D02*
X7448753Y-9195889D01*
X7448753Y-9195889D02*
X7439229Y-9157793D01*
X7439229Y-9157793D02*
X7439229Y-9110174D01*
X7439229Y-9110174D02*
X7448753Y-9072079D01*
X7448753Y-9072079D02*
X7458277Y-9053031D01*
X7458277Y-9053031D02*
X7467801Y-9043508D01*
X7467801Y-9043508D02*
X7486848Y-9033984D01*
X7743991Y-9233984D02*
X7629706Y-9233984D01*
X7686848Y-9233984D02*
X7686848Y-9033984D01*
X7686848Y-9033984D02*
X7667801Y-9062555D01*
X7667801Y-9062555D02*
X7648753Y-9081603D01*
X7648753Y-9081603D02*
X7629706Y-9091127D01*
X7934467Y-9233984D02*
X7820182Y-9233984D01*
X7877325Y-9233984D02*
X7877325Y-9033984D01*
X7877325Y-9033984D02*
X7858277Y-9062555D01*
X7858277Y-9062555D02*
X7839229Y-9081603D01*
X7839229Y-9081603D02*
X7820182Y-9091127D01*
X8048753Y-9119698D02*
X8029706Y-9110174D01*
X8029706Y-9110174D02*
X8020182Y-9100650D01*
X8020182Y-9100650D02*
X8010658Y-9081603D01*
X8010658Y-9081603D02*
X8010658Y-9072079D01*
X8010658Y-9072079D02*
X8020182Y-9053031D01*
X8020182Y-9053031D02*
X8029706Y-9043508D01*
X8029706Y-9043508D02*
X8048753Y-9033984D01*
X8048753Y-9033984D02*
X8086848Y-9033984D01*
X8086848Y-9033984D02*
X8105896Y-9043508D01*
X8105896Y-9043508D02*
X8115420Y-9053031D01*
X8115420Y-9053031D02*
X8124944Y-9072079D01*
X8124944Y-9072079D02*
X8124944Y-9081603D01*
X8124944Y-9081603D02*
X8115420Y-9100650D01*
X8115420Y-9100650D02*
X8105896Y-9110174D01*
X8105896Y-9110174D02*
X8086848Y-9119698D01*
X8086848Y-9119698D02*
X8048753Y-9119698D01*
X8048753Y-9119698D02*
X8029706Y-9129222D01*
X8029706Y-9129222D02*
X8020182Y-9138746D01*
X8020182Y-9138746D02*
X8010658Y-9157793D01*
X8010658Y-9157793D02*
X8010658Y-9195889D01*
X8010658Y-9195889D02*
X8020182Y-9214936D01*
X8020182Y-9214936D02*
X8029706Y-9224460D01*
X8029706Y-9224460D02*
X8048753Y-9233984D01*
X8048753Y-9233984D02*
X8086848Y-9233984D01*
X8086848Y-9233984D02*
X8105896Y-9224460D01*
X8105896Y-9224460D02*
X8115420Y-9214936D01*
X8115420Y-9214936D02*
X8124944Y-9195889D01*
X8124944Y-9195889D02*
X8124944Y-9157793D01*
X8124944Y-9157793D02*
X8115420Y-9138746D01*
X8115420Y-9138746D02*
X8105896Y-9129222D01*
X8105896Y-9129222D02*
X8086848Y-9119698D01*
X8201134Y-9033984D02*
X8201134Y-9072079D01*
X8277325Y-9033984D02*
X8277325Y-9072079D01*
X8572563Y-9310174D02*
X8563039Y-9300650D01*
X8563039Y-9300650D02*
X8543991Y-9272079D01*
X8543991Y-9272079D02*
X8534468Y-9253031D01*
X8534468Y-9253031D02*
X8524944Y-9224460D01*
X8524944Y-9224460D02*
X8515420Y-9176841D01*
X8515420Y-9176841D02*
X8515420Y-9138746D01*
X8515420Y-9138746D02*
X8524944Y-9091127D01*
X8524944Y-9091127D02*
X8534468Y-9062555D01*
X8534468Y-9062555D02*
X8543991Y-9043508D01*
X8543991Y-9043508D02*
X8563039Y-9014936D01*
X8563039Y-9014936D02*
X8572563Y-9005412D01*
X8753515Y-9233984D02*
X8639230Y-9233984D01*
X8696372Y-9233984D02*
X8696372Y-9033984D01*
X8696372Y-9033984D02*
X8677325Y-9062555D01*
X8677325Y-9062555D02*
X8658277Y-9081603D01*
X8658277Y-9081603D02*
X8639230Y-9091127D01*
X8820182Y-9033984D02*
X8953515Y-9033984D01*
X8953515Y-9033984D02*
X8867801Y-9233984D01*
X9010658Y-9033984D02*
X9134468Y-9033984D01*
X9134468Y-9033984D02*
X9067801Y-9110174D01*
X9067801Y-9110174D02*
X9096372Y-9110174D01*
X9096372Y-9110174D02*
X9115420Y-9119698D01*
X9115420Y-9119698D02*
X9124944Y-9129222D01*
X9124944Y-9129222D02*
X9134468Y-9148270D01*
X9134468Y-9148270D02*
X9134468Y-9195889D01*
X9134468Y-9195889D02*
X9124944Y-9214936D01*
X9124944Y-9214936D02*
X9115420Y-9224460D01*
X9115420Y-9224460D02*
X9096372Y-9233984D01*
X9096372Y-9233984D02*
X9039230Y-9233984D01*
X9039230Y-9233984D02*
X9020182Y-9224460D01*
X9020182Y-9224460D02*
X9010658Y-9214936D01*
X9372563Y-9233984D02*
X9372563Y-9033984D01*
X9458277Y-9233984D02*
X9458277Y-9129222D01*
X9458277Y-9129222D02*
X9448753Y-9110174D01*
X9448753Y-9110174D02*
X9429706Y-9100650D01*
X9429706Y-9100650D02*
X9401134Y-9100650D01*
X9401134Y-9100650D02*
X9382087Y-9110174D01*
X9382087Y-9110174D02*
X9372563Y-9119698D01*
X9582087Y-9233984D02*
X9563039Y-9224460D01*
X9563039Y-9224460D02*
X9553515Y-9214936D01*
X9553515Y-9214936D02*
X9543992Y-9195889D01*
X9543992Y-9195889D02*
X9543992Y-9138746D01*
X9543992Y-9138746D02*
X9553515Y-9119698D01*
X9553515Y-9119698D02*
X9563039Y-9110174D01*
X9563039Y-9110174D02*
X9582087Y-9100650D01*
X9582087Y-9100650D02*
X9610658Y-9100650D01*
X9610658Y-9100650D02*
X9629706Y-9110174D01*
X9629706Y-9110174D02*
X9639230Y-9119698D01*
X9639230Y-9119698D02*
X9648753Y-9138746D01*
X9648753Y-9138746D02*
X9648753Y-9195889D01*
X9648753Y-9195889D02*
X9639230Y-9214936D01*
X9639230Y-9214936D02*
X9629706Y-9224460D01*
X9629706Y-9224460D02*
X9610658Y-9233984D01*
X9610658Y-9233984D02*
X9582087Y-9233984D01*
X9763039Y-9233984D02*
X9743992Y-9224460D01*
X9743992Y-9224460D02*
X9734468Y-9205412D01*
X9734468Y-9205412D02*
X9734468Y-9033984D01*
X9915420Y-9224460D02*
X9896373Y-9233984D01*
X9896373Y-9233984D02*
X9858277Y-9233984D01*
X9858277Y-9233984D02*
X9839230Y-9224460D01*
X9839230Y-9224460D02*
X9829706Y-9205412D01*
X9829706Y-9205412D02*
X9829706Y-9129222D01*
X9829706Y-9129222D02*
X9839230Y-9110174D01*
X9839230Y-9110174D02*
X9858277Y-9100650D01*
X9858277Y-9100650D02*
X9896373Y-9100650D01*
X9896373Y-9100650D02*
X9915420Y-9110174D01*
X9915420Y-9110174D02*
X9924944Y-9129222D01*
X9924944Y-9129222D02*
X9924944Y-9148270D01*
X9924944Y-9148270D02*
X9829706Y-9167317D01*
X10001134Y-9224460D02*
X10020182Y-9233984D01*
X10020182Y-9233984D02*
X10058277Y-9233984D01*
X10058277Y-9233984D02*
X10077325Y-9224460D01*
X10077325Y-9224460D02*
X10086849Y-9205412D01*
X10086849Y-9205412D02*
X10086849Y-9195889D01*
X10086849Y-9195889D02*
X10077325Y-9176841D01*
X10077325Y-9176841D02*
X10058277Y-9167317D01*
X10058277Y-9167317D02*
X10029706Y-9167317D01*
X10029706Y-9167317D02*
X10010658Y-9157793D01*
X10010658Y-9157793D02*
X10001134Y-9138746D01*
X10001134Y-9138746D02*
X10001134Y-9129222D01*
X10001134Y-9129222D02*
X10010658Y-9110174D01*
X10010658Y-9110174D02*
X10029706Y-9100650D01*
X10029706Y-9100650D02*
X10058277Y-9100650D01*
X10058277Y-9100650D02*
X10077325Y-9110174D01*
X10153515Y-9310174D02*
X10163039Y-9300650D01*
X10163039Y-9300650D02*
X10182087Y-9272079D01*
X10182087Y-9272079D02*
X10191611Y-9253031D01*
X10191611Y-9253031D02*
X10201134Y-9224460D01*
X10201134Y-9224460D02*
X10210658Y-9176841D01*
X10210658Y-9176841D02*
X10210658Y-9138746D01*
X10210658Y-9138746D02*
X10201134Y-9091127D01*
X10201134Y-9091127D02*
X10191611Y-9062555D01*
X10191611Y-9062555D02*
X10182087Y-9043508D01*
X10182087Y-9043508D02*
X10163039Y-9014936D01*
X10163039Y-9014936D02*
X10153515Y-9005412D01*
D12*
X4997500Y-9406500D02*
G75*
G02*
X4937500Y-9406500I-30000J0D01*
G01*
X4937500Y-9406500D02*
G75*
G02*
X4997500Y-9406500I30000J0D01*
G01*
D11*
X5296372Y-9297984D02*
X5315420Y-9297984D01*
X5315420Y-9297984D02*
X5334467Y-9307508D01*
X5334467Y-9307508D02*
X5343991Y-9317031D01*
X5343991Y-9317031D02*
X5353515Y-9336079D01*
X5353515Y-9336079D02*
X5363039Y-9374174D01*
X5363039Y-9374174D02*
X5363039Y-9421793D01*
X5363039Y-9421793D02*
X5353515Y-9459889D01*
X5353515Y-9459889D02*
X5343991Y-9478936D01*
X5343991Y-9478936D02*
X5334467Y-9488460D01*
X5334467Y-9488460D02*
X5315420Y-9497984D01*
X5315420Y-9497984D02*
X5296372Y-9497984D01*
X5296372Y-9497984D02*
X5277324Y-9488460D01*
X5277324Y-9488460D02*
X5267801Y-9478936D01*
X5267801Y-9478936D02*
X5258277Y-9459889D01*
X5258277Y-9459889D02*
X5248753Y-9421793D01*
X5248753Y-9421793D02*
X5248753Y-9374174D01*
X5248753Y-9374174D02*
X5258277Y-9336079D01*
X5258277Y-9336079D02*
X5267801Y-9317031D01*
X5267801Y-9317031D02*
X5277324Y-9307508D01*
X5277324Y-9307508D02*
X5296372Y-9297984D01*
X5448753Y-9478936D02*
X5458277Y-9488460D01*
X5458277Y-9488460D02*
X5448753Y-9497984D01*
X5448753Y-9497984D02*
X5439229Y-9488460D01*
X5439229Y-9488460D02*
X5448753Y-9478936D01*
X5448753Y-9478936D02*
X5448753Y-9497984D01*
X5629705Y-9297984D02*
X5591610Y-9297984D01*
X5591610Y-9297984D02*
X5572563Y-9307508D01*
X5572563Y-9307508D02*
X5563039Y-9317031D01*
X5563039Y-9317031D02*
X5543991Y-9345603D01*
X5543991Y-9345603D02*
X5534467Y-9383698D01*
X5534467Y-9383698D02*
X5534467Y-9459889D01*
X5534467Y-9459889D02*
X5543991Y-9478936D01*
X5543991Y-9478936D02*
X5553515Y-9488460D01*
X5553515Y-9488460D02*
X5572563Y-9497984D01*
X5572563Y-9497984D02*
X5610658Y-9497984D01*
X5610658Y-9497984D02*
X5629705Y-9488460D01*
X5629705Y-9488460D02*
X5639229Y-9478936D01*
X5639229Y-9478936D02*
X5648753Y-9459889D01*
X5648753Y-9459889D02*
X5648753Y-9412270D01*
X5648753Y-9412270D02*
X5639229Y-9393222D01*
X5639229Y-9393222D02*
X5629705Y-9383698D01*
X5629705Y-9383698D02*
X5610658Y-9374174D01*
X5610658Y-9374174D02*
X5572563Y-9374174D01*
X5572563Y-9374174D02*
X5553515Y-9383698D01*
X5553515Y-9383698D02*
X5543991Y-9393222D01*
X5543991Y-9393222D02*
X5534467Y-9412270D01*
X5772562Y-9297984D02*
X5791610Y-9297984D01*
X5791610Y-9297984D02*
X5810658Y-9307508D01*
X5810658Y-9307508D02*
X5820182Y-9317031D01*
X5820182Y-9317031D02*
X5829705Y-9336079D01*
X5829705Y-9336079D02*
X5839229Y-9374174D01*
X5839229Y-9374174D02*
X5839229Y-9421793D01*
X5839229Y-9421793D02*
X5829705Y-9459889D01*
X5829705Y-9459889D02*
X5820182Y-9478936D01*
X5820182Y-9478936D02*
X5810658Y-9488460D01*
X5810658Y-9488460D02*
X5791610Y-9497984D01*
X5791610Y-9497984D02*
X5772562Y-9497984D01*
X5772562Y-9497984D02*
X5753515Y-9488460D01*
X5753515Y-9488460D02*
X5743991Y-9478936D01*
X5743991Y-9478936D02*
X5734467Y-9459889D01*
X5734467Y-9459889D02*
X5724943Y-9421793D01*
X5724943Y-9421793D02*
X5724943Y-9374174D01*
X5724943Y-9374174D02*
X5734467Y-9336079D01*
X5734467Y-9336079D02*
X5743991Y-9317031D01*
X5743991Y-9317031D02*
X5753515Y-9307508D01*
X5753515Y-9307508D02*
X5772562Y-9297984D01*
X5963039Y-9297984D02*
X5982086Y-9297984D01*
X5982086Y-9297984D02*
X6001134Y-9307508D01*
X6001134Y-9307508D02*
X6010658Y-9317031D01*
X6010658Y-9317031D02*
X6020182Y-9336079D01*
X6020182Y-9336079D02*
X6029705Y-9374174D01*
X6029705Y-9374174D02*
X6029705Y-9421793D01*
X6029705Y-9421793D02*
X6020182Y-9459889D01*
X6020182Y-9459889D02*
X6010658Y-9478936D01*
X6010658Y-9478936D02*
X6001134Y-9488460D01*
X6001134Y-9488460D02*
X5982086Y-9497984D01*
X5982086Y-9497984D02*
X5963039Y-9497984D01*
X5963039Y-9497984D02*
X5943991Y-9488460D01*
X5943991Y-9488460D02*
X5934467Y-9478936D01*
X5934467Y-9478936D02*
X5924943Y-9459889D01*
X5924943Y-9459889D02*
X5915420Y-9421793D01*
X5915420Y-9421793D02*
X5915420Y-9374174D01*
X5915420Y-9374174D02*
X5924943Y-9336079D01*
X5924943Y-9336079D02*
X5934467Y-9317031D01*
X5934467Y-9317031D02*
X5943991Y-9307508D01*
X5943991Y-9307508D02*
X5963039Y-9297984D01*
X6115420Y-9497984D02*
X6115420Y-9364650D01*
X6115420Y-9383698D02*
X6124943Y-9374174D01*
X6124943Y-9374174D02*
X6143991Y-9364650D01*
X6143991Y-9364650D02*
X6172563Y-9364650D01*
X6172563Y-9364650D02*
X6191610Y-9374174D01*
X6191610Y-9374174D02*
X6201134Y-9393222D01*
X6201134Y-9393222D02*
X6201134Y-9497984D01*
X6201134Y-9393222D02*
X6210658Y-9374174D01*
X6210658Y-9374174D02*
X6229705Y-9364650D01*
X6229705Y-9364650D02*
X6258277Y-9364650D01*
X6258277Y-9364650D02*
X6277324Y-9374174D01*
X6277324Y-9374174D02*
X6286848Y-9393222D01*
X6286848Y-9393222D02*
X6286848Y-9497984D01*
X6382086Y-9497984D02*
X6382086Y-9364650D01*
X6382086Y-9383698D02*
X6391610Y-9374174D01*
X6391610Y-9374174D02*
X6410658Y-9364650D01*
X6410658Y-9364650D02*
X6439229Y-9364650D01*
X6439229Y-9364650D02*
X6458277Y-9374174D01*
X6458277Y-9374174D02*
X6467801Y-9393222D01*
X6467801Y-9393222D02*
X6467801Y-9497984D01*
X6467801Y-9393222D02*
X6477324Y-9374174D01*
X6477324Y-9374174D02*
X6496372Y-9364650D01*
X6496372Y-9364650D02*
X6524943Y-9364650D01*
X6524943Y-9364650D02*
X6543991Y-9374174D01*
X6543991Y-9374174D02*
X6553515Y-9393222D01*
X6553515Y-9393222D02*
X6553515Y-9497984D01*
X6943991Y-9288460D02*
X6772563Y-9545603D01*
X7201134Y-9297984D02*
X7220182Y-9297984D01*
X7220182Y-9297984D02*
X7239229Y-9307508D01*
X7239229Y-9307508D02*
X7248753Y-9317031D01*
X7248753Y-9317031D02*
X7258277Y-9336079D01*
X7258277Y-9336079D02*
X7267801Y-9374174D01*
X7267801Y-9374174D02*
X7267801Y-9421793D01*
X7267801Y-9421793D02*
X7258277Y-9459889D01*
X7258277Y-9459889D02*
X7248753Y-9478936D01*
X7248753Y-9478936D02*
X7239229Y-9488460D01*
X7239229Y-9488460D02*
X7220182Y-9497984D01*
X7220182Y-9497984D02*
X7201134Y-9497984D01*
X7201134Y-9497984D02*
X7182086Y-9488460D01*
X7182086Y-9488460D02*
X7172563Y-9478936D01*
X7172563Y-9478936D02*
X7163039Y-9459889D01*
X7163039Y-9459889D02*
X7153515Y-9421793D01*
X7153515Y-9421793D02*
X7153515Y-9374174D01*
X7153515Y-9374174D02*
X7163039Y-9336079D01*
X7163039Y-9336079D02*
X7172563Y-9317031D01*
X7172563Y-9317031D02*
X7182086Y-9307508D01*
X7182086Y-9307508D02*
X7201134Y-9297984D01*
X7353515Y-9478936D02*
X7363039Y-9488460D01*
X7363039Y-9488460D02*
X7353515Y-9497984D01*
X7353515Y-9497984D02*
X7343991Y-9488460D01*
X7343991Y-9488460D02*
X7353515Y-9478936D01*
X7353515Y-9478936D02*
X7353515Y-9497984D01*
X7486848Y-9297984D02*
X7505896Y-9297984D01*
X7505896Y-9297984D02*
X7524944Y-9307508D01*
X7524944Y-9307508D02*
X7534467Y-9317031D01*
X7534467Y-9317031D02*
X7543991Y-9336079D01*
X7543991Y-9336079D02*
X7553515Y-9374174D01*
X7553515Y-9374174D02*
X7553515Y-9421793D01*
X7553515Y-9421793D02*
X7543991Y-9459889D01*
X7543991Y-9459889D02*
X7534467Y-9478936D01*
X7534467Y-9478936D02*
X7524944Y-9488460D01*
X7524944Y-9488460D02*
X7505896Y-9497984D01*
X7505896Y-9497984D02*
X7486848Y-9497984D01*
X7486848Y-9497984D02*
X7467801Y-9488460D01*
X7467801Y-9488460D02*
X7458277Y-9478936D01*
X7458277Y-9478936D02*
X7448753Y-9459889D01*
X7448753Y-9459889D02*
X7439229Y-9421793D01*
X7439229Y-9421793D02*
X7439229Y-9374174D01*
X7439229Y-9374174D02*
X7448753Y-9336079D01*
X7448753Y-9336079D02*
X7458277Y-9317031D01*
X7458277Y-9317031D02*
X7467801Y-9307508D01*
X7467801Y-9307508D02*
X7486848Y-9297984D01*
X7629706Y-9317031D02*
X7639229Y-9307508D01*
X7639229Y-9307508D02*
X7658277Y-9297984D01*
X7658277Y-9297984D02*
X7705896Y-9297984D01*
X7705896Y-9297984D02*
X7724944Y-9307508D01*
X7724944Y-9307508D02*
X7734467Y-9317031D01*
X7734467Y-9317031D02*
X7743991Y-9336079D01*
X7743991Y-9336079D02*
X7743991Y-9355127D01*
X7743991Y-9355127D02*
X7734467Y-9383698D01*
X7734467Y-9383698D02*
X7620182Y-9497984D01*
X7620182Y-9497984D02*
X7743991Y-9497984D01*
X7810658Y-9297984D02*
X7934467Y-9297984D01*
X7934467Y-9297984D02*
X7867801Y-9374174D01*
X7867801Y-9374174D02*
X7896372Y-9374174D01*
X7896372Y-9374174D02*
X7915420Y-9383698D01*
X7915420Y-9383698D02*
X7924944Y-9393222D01*
X7924944Y-9393222D02*
X7934467Y-9412270D01*
X7934467Y-9412270D02*
X7934467Y-9459889D01*
X7934467Y-9459889D02*
X7924944Y-9478936D01*
X7924944Y-9478936D02*
X7915420Y-9488460D01*
X7915420Y-9488460D02*
X7896372Y-9497984D01*
X7896372Y-9497984D02*
X7839229Y-9497984D01*
X7839229Y-9497984D02*
X7820182Y-9488460D01*
X7820182Y-9488460D02*
X7810658Y-9478936D01*
X8105896Y-9297984D02*
X8067801Y-9297984D01*
X8067801Y-9297984D02*
X8048753Y-9307508D01*
X8048753Y-9307508D02*
X8039229Y-9317031D01*
X8039229Y-9317031D02*
X8020182Y-9345603D01*
X8020182Y-9345603D02*
X8010658Y-9383698D01*
X8010658Y-9383698D02*
X8010658Y-9459889D01*
X8010658Y-9459889D02*
X8020182Y-9478936D01*
X8020182Y-9478936D02*
X8029706Y-9488460D01*
X8029706Y-9488460D02*
X8048753Y-9497984D01*
X8048753Y-9497984D02*
X8086848Y-9497984D01*
X8086848Y-9497984D02*
X8105896Y-9488460D01*
X8105896Y-9488460D02*
X8115420Y-9478936D01*
X8115420Y-9478936D02*
X8124944Y-9459889D01*
X8124944Y-9459889D02*
X8124944Y-9412270D01*
X8124944Y-9412270D02*
X8115420Y-9393222D01*
X8115420Y-9393222D02*
X8105896Y-9383698D01*
X8105896Y-9383698D02*
X8086848Y-9374174D01*
X8086848Y-9374174D02*
X8048753Y-9374174D01*
X8048753Y-9374174D02*
X8029706Y-9383698D01*
X8029706Y-9383698D02*
X8020182Y-9393222D01*
X8020182Y-9393222D02*
X8010658Y-9412270D01*
X8201134Y-9297984D02*
X8201134Y-9336079D01*
X8277325Y-9297984D02*
X8277325Y-9336079D01*
X8572563Y-9574174D02*
X8563039Y-9564650D01*
X8563039Y-9564650D02*
X8543991Y-9536079D01*
X8543991Y-9536079D02*
X8534468Y-9517031D01*
X8534468Y-9517031D02*
X8524944Y-9488460D01*
X8524944Y-9488460D02*
X8515420Y-9440841D01*
X8515420Y-9440841D02*
X8515420Y-9402746D01*
X8515420Y-9402746D02*
X8524944Y-9355127D01*
X8524944Y-9355127D02*
X8534468Y-9326555D01*
X8534468Y-9326555D02*
X8543991Y-9307508D01*
X8543991Y-9307508D02*
X8563039Y-9278936D01*
X8563039Y-9278936D02*
X8572563Y-9269412D01*
X8686849Y-9297984D02*
X8705896Y-9297984D01*
X8705896Y-9297984D02*
X8724944Y-9307508D01*
X8724944Y-9307508D02*
X8734468Y-9317031D01*
X8734468Y-9317031D02*
X8743991Y-9336079D01*
X8743991Y-9336079D02*
X8753515Y-9374174D01*
X8753515Y-9374174D02*
X8753515Y-9421793D01*
X8753515Y-9421793D02*
X8743991Y-9459889D01*
X8743991Y-9459889D02*
X8734468Y-9478936D01*
X8734468Y-9478936D02*
X8724944Y-9488460D01*
X8724944Y-9488460D02*
X8705896Y-9497984D01*
X8705896Y-9497984D02*
X8686849Y-9497984D01*
X8686849Y-9497984D02*
X8667801Y-9488460D01*
X8667801Y-9488460D02*
X8658277Y-9478936D01*
X8658277Y-9478936D02*
X8648753Y-9459889D01*
X8648753Y-9459889D02*
X8639230Y-9421793D01*
X8639230Y-9421793D02*
X8639230Y-9374174D01*
X8639230Y-9374174D02*
X8648753Y-9336079D01*
X8648753Y-9336079D02*
X8658277Y-9317031D01*
X8658277Y-9317031D02*
X8667801Y-9307508D01*
X8667801Y-9307508D02*
X8686849Y-9297984D01*
X8991611Y-9497984D02*
X8991611Y-9297984D01*
X9077325Y-9497984D02*
X9077325Y-9393222D01*
X9077325Y-9393222D02*
X9067801Y-9374174D01*
X9067801Y-9374174D02*
X9048753Y-9364650D01*
X9048753Y-9364650D02*
X9020182Y-9364650D01*
X9020182Y-9364650D02*
X9001134Y-9374174D01*
X9001134Y-9374174D02*
X8991611Y-9383698D01*
X9201134Y-9497984D02*
X9182087Y-9488460D01*
X9182087Y-9488460D02*
X9172563Y-9478936D01*
X9172563Y-9478936D02*
X9163039Y-9459889D01*
X9163039Y-9459889D02*
X9163039Y-9402746D01*
X9163039Y-9402746D02*
X9172563Y-9383698D01*
X9172563Y-9383698D02*
X9182087Y-9374174D01*
X9182087Y-9374174D02*
X9201134Y-9364650D01*
X9201134Y-9364650D02*
X9229706Y-9364650D01*
X9229706Y-9364650D02*
X9248753Y-9374174D01*
X9248753Y-9374174D02*
X9258277Y-9383698D01*
X9258277Y-9383698D02*
X9267801Y-9402746D01*
X9267801Y-9402746D02*
X9267801Y-9459889D01*
X9267801Y-9459889D02*
X9258277Y-9478936D01*
X9258277Y-9478936D02*
X9248753Y-9488460D01*
X9248753Y-9488460D02*
X9229706Y-9497984D01*
X9229706Y-9497984D02*
X9201134Y-9497984D01*
X9382087Y-9497984D02*
X9363039Y-9488460D01*
X9363039Y-9488460D02*
X9353515Y-9469412D01*
X9353515Y-9469412D02*
X9353515Y-9297984D01*
X9534468Y-9488460D02*
X9515420Y-9497984D01*
X9515420Y-9497984D02*
X9477325Y-9497984D01*
X9477325Y-9497984D02*
X9458277Y-9488460D01*
X9458277Y-9488460D02*
X9448753Y-9469412D01*
X9448753Y-9469412D02*
X9448753Y-9393222D01*
X9448753Y-9393222D02*
X9458277Y-9374174D01*
X9458277Y-9374174D02*
X9477325Y-9364650D01*
X9477325Y-9364650D02*
X9515420Y-9364650D01*
X9515420Y-9364650D02*
X9534468Y-9374174D01*
X9534468Y-9374174D02*
X9543992Y-9393222D01*
X9543992Y-9393222D02*
X9543992Y-9412270D01*
X9543992Y-9412270D02*
X9448753Y-9431317D01*
X9620182Y-9488460D02*
X9639230Y-9497984D01*
X9639230Y-9497984D02*
X9677325Y-9497984D01*
X9677325Y-9497984D02*
X9696373Y-9488460D01*
X9696373Y-9488460D02*
X9705896Y-9469412D01*
X9705896Y-9469412D02*
X9705896Y-9459889D01*
X9705896Y-9459889D02*
X9696373Y-9440841D01*
X9696373Y-9440841D02*
X9677325Y-9431317D01*
X9677325Y-9431317D02*
X9648753Y-9431317D01*
X9648753Y-9431317D02*
X9629706Y-9421793D01*
X9629706Y-9421793D02*
X9620182Y-9402746D01*
X9620182Y-9402746D02*
X9620182Y-9393222D01*
X9620182Y-9393222D02*
X9629706Y-9374174D01*
X9629706Y-9374174D02*
X9648753Y-9364650D01*
X9648753Y-9364650D02*
X9677325Y-9364650D01*
X9677325Y-9364650D02*
X9696373Y-9374174D01*
X9943992Y-9421793D02*
X10096373Y-9421793D01*
X10020182Y-9497984D02*
X10020182Y-9345603D01*
X10372563Y-9383698D02*
X10353515Y-9374174D01*
X10353515Y-9374174D02*
X10343992Y-9364650D01*
X10343992Y-9364650D02*
X10334468Y-9345603D01*
X10334468Y-9345603D02*
X10334468Y-9336079D01*
X10334468Y-9336079D02*
X10343992Y-9317031D01*
X10343992Y-9317031D02*
X10353515Y-9307508D01*
X10353515Y-9307508D02*
X10372563Y-9297984D01*
X10372563Y-9297984D02*
X10410658Y-9297984D01*
X10410658Y-9297984D02*
X10429706Y-9307508D01*
X10429706Y-9307508D02*
X10439230Y-9317031D01*
X10439230Y-9317031D02*
X10448754Y-9336079D01*
X10448754Y-9336079D02*
X10448754Y-9345603D01*
X10448754Y-9345603D02*
X10439230Y-9364650D01*
X10439230Y-9364650D02*
X10429706Y-9374174D01*
X10429706Y-9374174D02*
X10410658Y-9383698D01*
X10410658Y-9383698D02*
X10372563Y-9383698D01*
X10372563Y-9383698D02*
X10353515Y-9393222D01*
X10353515Y-9393222D02*
X10343992Y-9402746D01*
X10343992Y-9402746D02*
X10334468Y-9421793D01*
X10334468Y-9421793D02*
X10334468Y-9459889D01*
X10334468Y-9459889D02*
X10343992Y-9478936D01*
X10343992Y-9478936D02*
X10353515Y-9488460D01*
X10353515Y-9488460D02*
X10372563Y-9497984D01*
X10372563Y-9497984D02*
X10410658Y-9497984D01*
X10410658Y-9497984D02*
X10429706Y-9488460D01*
X10429706Y-9488460D02*
X10439230Y-9478936D01*
X10439230Y-9478936D02*
X10448754Y-9459889D01*
X10448754Y-9459889D02*
X10448754Y-9421793D01*
X10448754Y-9421793D02*
X10439230Y-9402746D01*
X10439230Y-9402746D02*
X10429706Y-9393222D01*
X10429706Y-9393222D02*
X10410658Y-9383698D01*
X10677325Y-9488460D02*
X10696373Y-9497984D01*
X10696373Y-9497984D02*
X10734468Y-9497984D01*
X10734468Y-9497984D02*
X10753516Y-9488460D01*
X10753516Y-9488460D02*
X10763039Y-9469412D01*
X10763039Y-9469412D02*
X10763039Y-9459889D01*
X10763039Y-9459889D02*
X10753516Y-9440841D01*
X10753516Y-9440841D02*
X10734468Y-9431317D01*
X10734468Y-9431317D02*
X10705896Y-9431317D01*
X10705896Y-9431317D02*
X10686849Y-9421793D01*
X10686849Y-9421793D02*
X10677325Y-9402746D01*
X10677325Y-9402746D02*
X10677325Y-9393222D01*
X10677325Y-9393222D02*
X10686849Y-9374174D01*
X10686849Y-9374174D02*
X10705896Y-9364650D01*
X10705896Y-9364650D02*
X10734468Y-9364650D01*
X10734468Y-9364650D02*
X10753516Y-9374174D01*
X10877325Y-9497984D02*
X10858277Y-9488460D01*
X10858277Y-9488460D02*
X10848754Y-9469412D01*
X10848754Y-9469412D02*
X10848754Y-9297984D01*
X10982087Y-9497984D02*
X10963039Y-9488460D01*
X10963039Y-9488460D02*
X10953516Y-9478936D01*
X10953516Y-9478936D02*
X10943992Y-9459889D01*
X10943992Y-9459889D02*
X10943992Y-9402746D01*
X10943992Y-9402746D02*
X10953516Y-9383698D01*
X10953516Y-9383698D02*
X10963039Y-9374174D01*
X10963039Y-9374174D02*
X10982087Y-9364650D01*
X10982087Y-9364650D02*
X11010658Y-9364650D01*
X11010658Y-9364650D02*
X11029706Y-9374174D01*
X11029706Y-9374174D02*
X11039230Y-9383698D01*
X11039230Y-9383698D02*
X11048754Y-9402746D01*
X11048754Y-9402746D02*
X11048754Y-9459889D01*
X11048754Y-9459889D02*
X11039230Y-9478936D01*
X11039230Y-9478936D02*
X11029706Y-9488460D01*
X11029706Y-9488460D02*
X11010658Y-9497984D01*
X11010658Y-9497984D02*
X10982087Y-9497984D01*
X11105897Y-9364650D02*
X11182087Y-9364650D01*
X11134468Y-9297984D02*
X11134468Y-9469412D01*
X11134468Y-9469412D02*
X11143992Y-9488460D01*
X11143992Y-9488460D02*
X11163039Y-9497984D01*
X11163039Y-9497984D02*
X11182087Y-9497984D01*
X11239230Y-9488460D02*
X11258277Y-9497984D01*
X11258277Y-9497984D02*
X11296373Y-9497984D01*
X11296373Y-9497984D02*
X11315420Y-9488460D01*
X11315420Y-9488460D02*
X11324944Y-9469412D01*
X11324944Y-9469412D02*
X11324944Y-9459889D01*
X11324944Y-9459889D02*
X11315420Y-9440841D01*
X11315420Y-9440841D02*
X11296373Y-9431317D01*
X11296373Y-9431317D02*
X11267801Y-9431317D01*
X11267801Y-9431317D02*
X11248754Y-9421793D01*
X11248754Y-9421793D02*
X11239230Y-9402746D01*
X11239230Y-9402746D02*
X11239230Y-9393222D01*
X11239230Y-9393222D02*
X11248754Y-9374174D01*
X11248754Y-9374174D02*
X11267801Y-9364650D01*
X11267801Y-9364650D02*
X11296373Y-9364650D01*
X11296373Y-9364650D02*
X11315420Y-9374174D01*
X11391611Y-9574174D02*
X11401135Y-9564650D01*
X11401135Y-9564650D02*
X11420182Y-9536079D01*
X11420182Y-9536079D02*
X11429706Y-9517031D01*
X11429706Y-9517031D02*
X11439230Y-9488460D01*
X11439230Y-9488460D02*
X11448754Y-9440841D01*
X11448754Y-9440841D02*
X11448754Y-9402746D01*
X11448754Y-9402746D02*
X11439230Y-9355127D01*
X11439230Y-9355127D02*
X11429706Y-9326555D01*
X11429706Y-9326555D02*
X11420182Y-9307508D01*
X11420182Y-9307508D02*
X11401135Y-9278936D01*
X11401135Y-9278936D02*
X11391611Y-9269412D01*
D12*
X4952500Y-9625500D02*
X4952500Y-9715500D01*
X4907500Y-9670500D02*
X4997500Y-9670500D01*
D11*
X5296372Y-9561984D02*
X5315420Y-9561984D01*
X5315420Y-9561984D02*
X5334467Y-9571508D01*
X5334467Y-9571508D02*
X5343991Y-9581031D01*
X5343991Y-9581031D02*
X5353515Y-9600079D01*
X5353515Y-9600079D02*
X5363039Y-9638174D01*
X5363039Y-9638174D02*
X5363039Y-9685793D01*
X5363039Y-9685793D02*
X5353515Y-9723889D01*
X5353515Y-9723889D02*
X5343991Y-9742936D01*
X5343991Y-9742936D02*
X5334467Y-9752460D01*
X5334467Y-9752460D02*
X5315420Y-9761984D01*
X5315420Y-9761984D02*
X5296372Y-9761984D01*
X5296372Y-9761984D02*
X5277324Y-9752460D01*
X5277324Y-9752460D02*
X5267801Y-9742936D01*
X5267801Y-9742936D02*
X5258277Y-9723889D01*
X5258277Y-9723889D02*
X5248753Y-9685793D01*
X5248753Y-9685793D02*
X5248753Y-9638174D01*
X5248753Y-9638174D02*
X5258277Y-9600079D01*
X5258277Y-9600079D02*
X5267801Y-9581031D01*
X5267801Y-9581031D02*
X5277324Y-9571508D01*
X5277324Y-9571508D02*
X5296372Y-9561984D01*
X5448753Y-9742936D02*
X5458277Y-9752460D01*
X5458277Y-9752460D02*
X5448753Y-9761984D01*
X5448753Y-9761984D02*
X5439229Y-9752460D01*
X5439229Y-9752460D02*
X5448753Y-9742936D01*
X5448753Y-9742936D02*
X5448753Y-9761984D01*
X5553515Y-9761984D02*
X5591610Y-9761984D01*
X5591610Y-9761984D02*
X5610658Y-9752460D01*
X5610658Y-9752460D02*
X5620182Y-9742936D01*
X5620182Y-9742936D02*
X5639229Y-9714365D01*
X5639229Y-9714365D02*
X5648753Y-9676270D01*
X5648753Y-9676270D02*
X5648753Y-9600079D01*
X5648753Y-9600079D02*
X5639229Y-9581031D01*
X5639229Y-9581031D02*
X5629705Y-9571508D01*
X5629705Y-9571508D02*
X5610658Y-9561984D01*
X5610658Y-9561984D02*
X5572563Y-9561984D01*
X5572563Y-9561984D02*
X5553515Y-9571508D01*
X5553515Y-9571508D02*
X5543991Y-9581031D01*
X5543991Y-9581031D02*
X5534467Y-9600079D01*
X5534467Y-9600079D02*
X5534467Y-9647698D01*
X5534467Y-9647698D02*
X5543991Y-9666746D01*
X5543991Y-9666746D02*
X5553515Y-9676270D01*
X5553515Y-9676270D02*
X5572563Y-9685793D01*
X5572563Y-9685793D02*
X5610658Y-9685793D01*
X5610658Y-9685793D02*
X5629705Y-9676270D01*
X5629705Y-9676270D02*
X5639229Y-9666746D01*
X5639229Y-9666746D02*
X5648753Y-9647698D01*
X5772562Y-9561984D02*
X5791610Y-9561984D01*
X5791610Y-9561984D02*
X5810658Y-9571508D01*
X5810658Y-9571508D02*
X5820182Y-9581031D01*
X5820182Y-9581031D02*
X5829705Y-9600079D01*
X5829705Y-9600079D02*
X5839229Y-9638174D01*
X5839229Y-9638174D02*
X5839229Y-9685793D01*
X5839229Y-9685793D02*
X5829705Y-9723889D01*
X5829705Y-9723889D02*
X5820182Y-9742936D01*
X5820182Y-9742936D02*
X5810658Y-9752460D01*
X5810658Y-9752460D02*
X5791610Y-9761984D01*
X5791610Y-9761984D02*
X5772562Y-9761984D01*
X5772562Y-9761984D02*
X5753515Y-9752460D01*
X5753515Y-9752460D02*
X5743991Y-9742936D01*
X5743991Y-9742936D02*
X5734467Y-9723889D01*
X5734467Y-9723889D02*
X5724943Y-9685793D01*
X5724943Y-9685793D02*
X5724943Y-9638174D01*
X5724943Y-9638174D02*
X5734467Y-9600079D01*
X5734467Y-9600079D02*
X5743991Y-9581031D01*
X5743991Y-9581031D02*
X5753515Y-9571508D01*
X5753515Y-9571508D02*
X5772562Y-9561984D01*
X5963039Y-9561984D02*
X5982086Y-9561984D01*
X5982086Y-9561984D02*
X6001134Y-9571508D01*
X6001134Y-9571508D02*
X6010658Y-9581031D01*
X6010658Y-9581031D02*
X6020182Y-9600079D01*
X6020182Y-9600079D02*
X6029705Y-9638174D01*
X6029705Y-9638174D02*
X6029705Y-9685793D01*
X6029705Y-9685793D02*
X6020182Y-9723889D01*
X6020182Y-9723889D02*
X6010658Y-9742936D01*
X6010658Y-9742936D02*
X6001134Y-9752460D01*
X6001134Y-9752460D02*
X5982086Y-9761984D01*
X5982086Y-9761984D02*
X5963039Y-9761984D01*
X5963039Y-9761984D02*
X5943991Y-9752460D01*
X5943991Y-9752460D02*
X5934467Y-9742936D01*
X5934467Y-9742936D02*
X5924943Y-9723889D01*
X5924943Y-9723889D02*
X5915420Y-9685793D01*
X5915420Y-9685793D02*
X5915420Y-9638174D01*
X5915420Y-9638174D02*
X5924943Y-9600079D01*
X5924943Y-9600079D02*
X5934467Y-9581031D01*
X5934467Y-9581031D02*
X5943991Y-9571508D01*
X5943991Y-9571508D02*
X5963039Y-9561984D01*
X6115420Y-9761984D02*
X6115420Y-9628650D01*
X6115420Y-9647698D02*
X6124943Y-9638174D01*
X6124943Y-9638174D02*
X6143991Y-9628650D01*
X6143991Y-9628650D02*
X6172563Y-9628650D01*
X6172563Y-9628650D02*
X6191610Y-9638174D01*
X6191610Y-9638174D02*
X6201134Y-9657222D01*
X6201134Y-9657222D02*
X6201134Y-9761984D01*
X6201134Y-9657222D02*
X6210658Y-9638174D01*
X6210658Y-9638174D02*
X6229705Y-9628650D01*
X6229705Y-9628650D02*
X6258277Y-9628650D01*
X6258277Y-9628650D02*
X6277324Y-9638174D01*
X6277324Y-9638174D02*
X6286848Y-9657222D01*
X6286848Y-9657222D02*
X6286848Y-9761984D01*
X6382086Y-9761984D02*
X6382086Y-9628650D01*
X6382086Y-9647698D02*
X6391610Y-9638174D01*
X6391610Y-9638174D02*
X6410658Y-9628650D01*
X6410658Y-9628650D02*
X6439229Y-9628650D01*
X6439229Y-9628650D02*
X6458277Y-9638174D01*
X6458277Y-9638174D02*
X6467801Y-9657222D01*
X6467801Y-9657222D02*
X6467801Y-9761984D01*
X6467801Y-9657222D02*
X6477324Y-9638174D01*
X6477324Y-9638174D02*
X6496372Y-9628650D01*
X6496372Y-9628650D02*
X6524943Y-9628650D01*
X6524943Y-9628650D02*
X6543991Y-9638174D01*
X6543991Y-9638174D02*
X6553515Y-9657222D01*
X6553515Y-9657222D02*
X6553515Y-9761984D01*
X6943991Y-9552460D02*
X6772563Y-9809603D01*
X7201134Y-9561984D02*
X7220182Y-9561984D01*
X7220182Y-9561984D02*
X7239229Y-9571508D01*
X7239229Y-9571508D02*
X7248753Y-9581031D01*
X7248753Y-9581031D02*
X7258277Y-9600079D01*
X7258277Y-9600079D02*
X7267801Y-9638174D01*
X7267801Y-9638174D02*
X7267801Y-9685793D01*
X7267801Y-9685793D02*
X7258277Y-9723889D01*
X7258277Y-9723889D02*
X7248753Y-9742936D01*
X7248753Y-9742936D02*
X7239229Y-9752460D01*
X7239229Y-9752460D02*
X7220182Y-9761984D01*
X7220182Y-9761984D02*
X7201134Y-9761984D01*
X7201134Y-9761984D02*
X7182086Y-9752460D01*
X7182086Y-9752460D02*
X7172563Y-9742936D01*
X7172563Y-9742936D02*
X7163039Y-9723889D01*
X7163039Y-9723889D02*
X7153515Y-9685793D01*
X7153515Y-9685793D02*
X7153515Y-9638174D01*
X7153515Y-9638174D02*
X7163039Y-9600079D01*
X7163039Y-9600079D02*
X7172563Y-9581031D01*
X7172563Y-9581031D02*
X7182086Y-9571508D01*
X7182086Y-9571508D02*
X7201134Y-9561984D01*
X7353515Y-9742936D02*
X7363039Y-9752460D01*
X7363039Y-9752460D02*
X7353515Y-9761984D01*
X7353515Y-9761984D02*
X7343991Y-9752460D01*
X7343991Y-9752460D02*
X7353515Y-9742936D01*
X7353515Y-9742936D02*
X7353515Y-9761984D01*
X7486848Y-9561984D02*
X7505896Y-9561984D01*
X7505896Y-9561984D02*
X7524944Y-9571508D01*
X7524944Y-9571508D02*
X7534467Y-9581031D01*
X7534467Y-9581031D02*
X7543991Y-9600079D01*
X7543991Y-9600079D02*
X7553515Y-9638174D01*
X7553515Y-9638174D02*
X7553515Y-9685793D01*
X7553515Y-9685793D02*
X7543991Y-9723889D01*
X7543991Y-9723889D02*
X7534467Y-9742936D01*
X7534467Y-9742936D02*
X7524944Y-9752460D01*
X7524944Y-9752460D02*
X7505896Y-9761984D01*
X7505896Y-9761984D02*
X7486848Y-9761984D01*
X7486848Y-9761984D02*
X7467801Y-9752460D01*
X7467801Y-9752460D02*
X7458277Y-9742936D01*
X7458277Y-9742936D02*
X7448753Y-9723889D01*
X7448753Y-9723889D02*
X7439229Y-9685793D01*
X7439229Y-9685793D02*
X7439229Y-9638174D01*
X7439229Y-9638174D02*
X7448753Y-9600079D01*
X7448753Y-9600079D02*
X7458277Y-9581031D01*
X7458277Y-9581031D02*
X7467801Y-9571508D01*
X7467801Y-9571508D02*
X7486848Y-9561984D01*
X7620182Y-9561984D02*
X7743991Y-9561984D01*
X7743991Y-9561984D02*
X7677325Y-9638174D01*
X7677325Y-9638174D02*
X7705896Y-9638174D01*
X7705896Y-9638174D02*
X7724944Y-9647698D01*
X7724944Y-9647698D02*
X7734467Y-9657222D01*
X7734467Y-9657222D02*
X7743991Y-9676270D01*
X7743991Y-9676270D02*
X7743991Y-9723889D01*
X7743991Y-9723889D02*
X7734467Y-9742936D01*
X7734467Y-9742936D02*
X7724944Y-9752460D01*
X7724944Y-9752460D02*
X7705896Y-9761984D01*
X7705896Y-9761984D02*
X7648753Y-9761984D01*
X7648753Y-9761984D02*
X7629706Y-9752460D01*
X7629706Y-9752460D02*
X7620182Y-9742936D01*
X7924944Y-9561984D02*
X7829706Y-9561984D01*
X7829706Y-9561984D02*
X7820182Y-9657222D01*
X7820182Y-9657222D02*
X7829706Y-9647698D01*
X7829706Y-9647698D02*
X7848753Y-9638174D01*
X7848753Y-9638174D02*
X7896372Y-9638174D01*
X7896372Y-9638174D02*
X7915420Y-9647698D01*
X7915420Y-9647698D02*
X7924944Y-9657222D01*
X7924944Y-9657222D02*
X7934467Y-9676270D01*
X7934467Y-9676270D02*
X7934467Y-9723889D01*
X7934467Y-9723889D02*
X7924944Y-9742936D01*
X7924944Y-9742936D02*
X7915420Y-9752460D01*
X7915420Y-9752460D02*
X7896372Y-9761984D01*
X7896372Y-9761984D02*
X7848753Y-9761984D01*
X7848753Y-9761984D02*
X7829706Y-9752460D01*
X7829706Y-9752460D02*
X7820182Y-9742936D01*
X8105896Y-9628650D02*
X8105896Y-9761984D01*
X8058277Y-9552460D02*
X8010658Y-9695317D01*
X8010658Y-9695317D02*
X8134467Y-9695317D01*
X8201134Y-9561984D02*
X8201134Y-9600079D01*
X8277325Y-9561984D02*
X8277325Y-9600079D01*
X8572563Y-9838174D02*
X8563039Y-9828650D01*
X8563039Y-9828650D02*
X8543991Y-9800079D01*
X8543991Y-9800079D02*
X8534468Y-9781031D01*
X8534468Y-9781031D02*
X8524944Y-9752460D01*
X8524944Y-9752460D02*
X8515420Y-9704841D01*
X8515420Y-9704841D02*
X8515420Y-9666746D01*
X8515420Y-9666746D02*
X8524944Y-9619127D01*
X8524944Y-9619127D02*
X8534468Y-9590555D01*
X8534468Y-9590555D02*
X8543991Y-9571508D01*
X8543991Y-9571508D02*
X8563039Y-9542936D01*
X8563039Y-9542936D02*
X8572563Y-9533412D01*
X8639230Y-9581031D02*
X8648753Y-9571508D01*
X8648753Y-9571508D02*
X8667801Y-9561984D01*
X8667801Y-9561984D02*
X8715420Y-9561984D01*
X8715420Y-9561984D02*
X8734468Y-9571508D01*
X8734468Y-9571508D02*
X8743991Y-9581031D01*
X8743991Y-9581031D02*
X8753515Y-9600079D01*
X8753515Y-9600079D02*
X8753515Y-9619127D01*
X8753515Y-9619127D02*
X8743991Y-9647698D01*
X8743991Y-9647698D02*
X8629706Y-9761984D01*
X8629706Y-9761984D02*
X8753515Y-9761984D01*
X8991611Y-9761984D02*
X8991611Y-9561984D01*
X9077325Y-9761984D02*
X9077325Y-9657222D01*
X9077325Y-9657222D02*
X9067801Y-9638174D01*
X9067801Y-9638174D02*
X9048753Y-9628650D01*
X9048753Y-9628650D02*
X9020182Y-9628650D01*
X9020182Y-9628650D02*
X9001134Y-9638174D01*
X9001134Y-9638174D02*
X8991611Y-9647698D01*
X9201134Y-9761984D02*
X9182087Y-9752460D01*
X9182087Y-9752460D02*
X9172563Y-9742936D01*
X9172563Y-9742936D02*
X9163039Y-9723889D01*
X9163039Y-9723889D02*
X9163039Y-9666746D01*
X9163039Y-9666746D02*
X9172563Y-9647698D01*
X9172563Y-9647698D02*
X9182087Y-9638174D01*
X9182087Y-9638174D02*
X9201134Y-9628650D01*
X9201134Y-9628650D02*
X9229706Y-9628650D01*
X9229706Y-9628650D02*
X9248753Y-9638174D01*
X9248753Y-9638174D02*
X9258277Y-9647698D01*
X9258277Y-9647698D02*
X9267801Y-9666746D01*
X9267801Y-9666746D02*
X9267801Y-9723889D01*
X9267801Y-9723889D02*
X9258277Y-9742936D01*
X9258277Y-9742936D02*
X9248753Y-9752460D01*
X9248753Y-9752460D02*
X9229706Y-9761984D01*
X9229706Y-9761984D02*
X9201134Y-9761984D01*
X9382087Y-9761984D02*
X9363039Y-9752460D01*
X9363039Y-9752460D02*
X9353515Y-9733412D01*
X9353515Y-9733412D02*
X9353515Y-9561984D01*
X9534468Y-9752460D02*
X9515420Y-9761984D01*
X9515420Y-9761984D02*
X9477325Y-9761984D01*
X9477325Y-9761984D02*
X9458277Y-9752460D01*
X9458277Y-9752460D02*
X9448753Y-9733412D01*
X9448753Y-9733412D02*
X9448753Y-9657222D01*
X9448753Y-9657222D02*
X9458277Y-9638174D01*
X9458277Y-9638174D02*
X9477325Y-9628650D01*
X9477325Y-9628650D02*
X9515420Y-9628650D01*
X9515420Y-9628650D02*
X9534468Y-9638174D01*
X9534468Y-9638174D02*
X9543992Y-9657222D01*
X9543992Y-9657222D02*
X9543992Y-9676270D01*
X9543992Y-9676270D02*
X9448753Y-9695317D01*
X9620182Y-9752460D02*
X9639230Y-9761984D01*
X9639230Y-9761984D02*
X9677325Y-9761984D01*
X9677325Y-9761984D02*
X9696373Y-9752460D01*
X9696373Y-9752460D02*
X9705896Y-9733412D01*
X9705896Y-9733412D02*
X9705896Y-9723889D01*
X9705896Y-9723889D02*
X9696373Y-9704841D01*
X9696373Y-9704841D02*
X9677325Y-9695317D01*
X9677325Y-9695317D02*
X9648753Y-9695317D01*
X9648753Y-9695317D02*
X9629706Y-9685793D01*
X9629706Y-9685793D02*
X9620182Y-9666746D01*
X9620182Y-9666746D02*
X9620182Y-9657222D01*
X9620182Y-9657222D02*
X9629706Y-9638174D01*
X9629706Y-9638174D02*
X9648753Y-9628650D01*
X9648753Y-9628650D02*
X9677325Y-9628650D01*
X9677325Y-9628650D02*
X9696373Y-9638174D01*
X9772563Y-9838174D02*
X9782087Y-9828650D01*
X9782087Y-9828650D02*
X9801134Y-9800079D01*
X9801134Y-9800079D02*
X9810658Y-9781031D01*
X9810658Y-9781031D02*
X9820182Y-9752460D01*
X9820182Y-9752460D02*
X9829706Y-9704841D01*
X9829706Y-9704841D02*
X9829706Y-9666746D01*
X9829706Y-9666746D02*
X9820182Y-9619127D01*
X9820182Y-9619127D02*
X9810658Y-9590555D01*
X9810658Y-9590555D02*
X9801134Y-9571508D01*
X9801134Y-9571508D02*
X9782087Y-9542936D01*
X9782087Y-9542936D02*
X9772563Y-9533412D01*
D12*
X4982856Y-9969856D02*
X4982856Y-9899144D01*
X4912144Y-9899144D01*
X4912144Y-9969856D01*
X4982856Y-9969856D01*
D11*
X5363039Y-10025984D02*
X5248753Y-10025984D01*
X5305896Y-10025984D02*
X5305896Y-9825984D01*
X5305896Y-9825984D02*
X5286848Y-9854555D01*
X5286848Y-9854555D02*
X5267801Y-9873603D01*
X5267801Y-9873603D02*
X5248753Y-9883127D01*
X5448753Y-10006936D02*
X5458277Y-10016460D01*
X5458277Y-10016460D02*
X5448753Y-10025984D01*
X5448753Y-10025984D02*
X5439229Y-10016460D01*
X5439229Y-10016460D02*
X5448753Y-10006936D01*
X5448753Y-10006936D02*
X5448753Y-10025984D01*
X5582086Y-9825984D02*
X5601134Y-9825984D01*
X5601134Y-9825984D02*
X5620182Y-9835508D01*
X5620182Y-9835508D02*
X5629705Y-9845031D01*
X5629705Y-9845031D02*
X5639229Y-9864079D01*
X5639229Y-9864079D02*
X5648753Y-9902174D01*
X5648753Y-9902174D02*
X5648753Y-9949793D01*
X5648753Y-9949793D02*
X5639229Y-9987889D01*
X5639229Y-9987889D02*
X5629705Y-10006936D01*
X5629705Y-10006936D02*
X5620182Y-10016460D01*
X5620182Y-10016460D02*
X5601134Y-10025984D01*
X5601134Y-10025984D02*
X5582086Y-10025984D01*
X5582086Y-10025984D02*
X5563039Y-10016460D01*
X5563039Y-10016460D02*
X5553515Y-10006936D01*
X5553515Y-10006936D02*
X5543991Y-9987889D01*
X5543991Y-9987889D02*
X5534467Y-9949793D01*
X5534467Y-9949793D02*
X5534467Y-9902174D01*
X5534467Y-9902174D02*
X5543991Y-9864079D01*
X5543991Y-9864079D02*
X5553515Y-9845031D01*
X5553515Y-9845031D02*
X5563039Y-9835508D01*
X5563039Y-9835508D02*
X5582086Y-9825984D01*
X5772562Y-9825984D02*
X5791610Y-9825984D01*
X5791610Y-9825984D02*
X5810658Y-9835508D01*
X5810658Y-9835508D02*
X5820182Y-9845031D01*
X5820182Y-9845031D02*
X5829705Y-9864079D01*
X5829705Y-9864079D02*
X5839229Y-9902174D01*
X5839229Y-9902174D02*
X5839229Y-9949793D01*
X5839229Y-9949793D02*
X5829705Y-9987889D01*
X5829705Y-9987889D02*
X5820182Y-10006936D01*
X5820182Y-10006936D02*
X5810658Y-10016460D01*
X5810658Y-10016460D02*
X5791610Y-10025984D01*
X5791610Y-10025984D02*
X5772562Y-10025984D01*
X5772562Y-10025984D02*
X5753515Y-10016460D01*
X5753515Y-10016460D02*
X5743991Y-10006936D01*
X5743991Y-10006936D02*
X5734467Y-9987889D01*
X5734467Y-9987889D02*
X5724943Y-9949793D01*
X5724943Y-9949793D02*
X5724943Y-9902174D01*
X5724943Y-9902174D02*
X5734467Y-9864079D01*
X5734467Y-9864079D02*
X5743991Y-9845031D01*
X5743991Y-9845031D02*
X5753515Y-9835508D01*
X5753515Y-9835508D02*
X5772562Y-9825984D01*
X5963039Y-9825984D02*
X5982086Y-9825984D01*
X5982086Y-9825984D02*
X6001134Y-9835508D01*
X6001134Y-9835508D02*
X6010658Y-9845031D01*
X6010658Y-9845031D02*
X6020182Y-9864079D01*
X6020182Y-9864079D02*
X6029705Y-9902174D01*
X6029705Y-9902174D02*
X6029705Y-9949793D01*
X6029705Y-9949793D02*
X6020182Y-9987889D01*
X6020182Y-9987889D02*
X6010658Y-10006936D01*
X6010658Y-10006936D02*
X6001134Y-10016460D01*
X6001134Y-10016460D02*
X5982086Y-10025984D01*
X5982086Y-10025984D02*
X5963039Y-10025984D01*
X5963039Y-10025984D02*
X5943991Y-10016460D01*
X5943991Y-10016460D02*
X5934467Y-10006936D01*
X5934467Y-10006936D02*
X5924943Y-9987889D01*
X5924943Y-9987889D02*
X5915420Y-9949793D01*
X5915420Y-9949793D02*
X5915420Y-9902174D01*
X5915420Y-9902174D02*
X5924943Y-9864079D01*
X5924943Y-9864079D02*
X5934467Y-9845031D01*
X5934467Y-9845031D02*
X5943991Y-9835508D01*
X5943991Y-9835508D02*
X5963039Y-9825984D01*
X6115420Y-10025984D02*
X6115420Y-9892650D01*
X6115420Y-9911698D02*
X6124943Y-9902174D01*
X6124943Y-9902174D02*
X6143991Y-9892650D01*
X6143991Y-9892650D02*
X6172563Y-9892650D01*
X6172563Y-9892650D02*
X6191610Y-9902174D01*
X6191610Y-9902174D02*
X6201134Y-9921222D01*
X6201134Y-9921222D02*
X6201134Y-10025984D01*
X6201134Y-9921222D02*
X6210658Y-9902174D01*
X6210658Y-9902174D02*
X6229705Y-9892650D01*
X6229705Y-9892650D02*
X6258277Y-9892650D01*
X6258277Y-9892650D02*
X6277324Y-9902174D01*
X6277324Y-9902174D02*
X6286848Y-9921222D01*
X6286848Y-9921222D02*
X6286848Y-10025984D01*
X6382086Y-10025984D02*
X6382086Y-9892650D01*
X6382086Y-9911698D02*
X6391610Y-9902174D01*
X6391610Y-9902174D02*
X6410658Y-9892650D01*
X6410658Y-9892650D02*
X6439229Y-9892650D01*
X6439229Y-9892650D02*
X6458277Y-9902174D01*
X6458277Y-9902174D02*
X6467801Y-9921222D01*
X6467801Y-9921222D02*
X6467801Y-10025984D01*
X6467801Y-9921222D02*
X6477324Y-9902174D01*
X6477324Y-9902174D02*
X6496372Y-9892650D01*
X6496372Y-9892650D02*
X6524943Y-9892650D01*
X6524943Y-9892650D02*
X6543991Y-9902174D01*
X6543991Y-9902174D02*
X6553515Y-9921222D01*
X6553515Y-9921222D02*
X6553515Y-10025984D01*
X6943991Y-9816460D02*
X6772563Y-10073603D01*
X7201134Y-9825984D02*
X7220182Y-9825984D01*
X7220182Y-9825984D02*
X7239229Y-9835508D01*
X7239229Y-9835508D02*
X7248753Y-9845031D01*
X7248753Y-9845031D02*
X7258277Y-9864079D01*
X7258277Y-9864079D02*
X7267801Y-9902174D01*
X7267801Y-9902174D02*
X7267801Y-9949793D01*
X7267801Y-9949793D02*
X7258277Y-9987889D01*
X7258277Y-9987889D02*
X7248753Y-10006936D01*
X7248753Y-10006936D02*
X7239229Y-10016460D01*
X7239229Y-10016460D02*
X7220182Y-10025984D01*
X7220182Y-10025984D02*
X7201134Y-10025984D01*
X7201134Y-10025984D02*
X7182086Y-10016460D01*
X7182086Y-10016460D02*
X7172563Y-10006936D01*
X7172563Y-10006936D02*
X7163039Y-9987889D01*
X7163039Y-9987889D02*
X7153515Y-9949793D01*
X7153515Y-9949793D02*
X7153515Y-9902174D01*
X7153515Y-9902174D02*
X7163039Y-9864079D01*
X7163039Y-9864079D02*
X7172563Y-9845031D01*
X7172563Y-9845031D02*
X7182086Y-9835508D01*
X7182086Y-9835508D02*
X7201134Y-9825984D01*
X7353515Y-10006936D02*
X7363039Y-10016460D01*
X7363039Y-10016460D02*
X7353515Y-10025984D01*
X7353515Y-10025984D02*
X7343991Y-10016460D01*
X7343991Y-10016460D02*
X7353515Y-10006936D01*
X7353515Y-10006936D02*
X7353515Y-10025984D01*
X7486848Y-9825984D02*
X7505896Y-9825984D01*
X7505896Y-9825984D02*
X7524944Y-9835508D01*
X7524944Y-9835508D02*
X7534467Y-9845031D01*
X7534467Y-9845031D02*
X7543991Y-9864079D01*
X7543991Y-9864079D02*
X7553515Y-9902174D01*
X7553515Y-9902174D02*
X7553515Y-9949793D01*
X7553515Y-9949793D02*
X7543991Y-9987889D01*
X7543991Y-9987889D02*
X7534467Y-10006936D01*
X7534467Y-10006936D02*
X7524944Y-10016460D01*
X7524944Y-10016460D02*
X7505896Y-10025984D01*
X7505896Y-10025984D02*
X7486848Y-10025984D01*
X7486848Y-10025984D02*
X7467801Y-10016460D01*
X7467801Y-10016460D02*
X7458277Y-10006936D01*
X7458277Y-10006936D02*
X7448753Y-9987889D01*
X7448753Y-9987889D02*
X7439229Y-9949793D01*
X7439229Y-9949793D02*
X7439229Y-9902174D01*
X7439229Y-9902174D02*
X7448753Y-9864079D01*
X7448753Y-9864079D02*
X7458277Y-9845031D01*
X7458277Y-9845031D02*
X7467801Y-9835508D01*
X7467801Y-9835508D02*
X7486848Y-9825984D01*
X7620182Y-9825984D02*
X7743991Y-9825984D01*
X7743991Y-9825984D02*
X7677325Y-9902174D01*
X7677325Y-9902174D02*
X7705896Y-9902174D01*
X7705896Y-9902174D02*
X7724944Y-9911698D01*
X7724944Y-9911698D02*
X7734467Y-9921222D01*
X7734467Y-9921222D02*
X7743991Y-9940270D01*
X7743991Y-9940270D02*
X7743991Y-9987889D01*
X7743991Y-9987889D02*
X7734467Y-10006936D01*
X7734467Y-10006936D02*
X7724944Y-10016460D01*
X7724944Y-10016460D02*
X7705896Y-10025984D01*
X7705896Y-10025984D02*
X7648753Y-10025984D01*
X7648753Y-10025984D02*
X7629706Y-10016460D01*
X7629706Y-10016460D02*
X7620182Y-10006936D01*
X7839229Y-10025984D02*
X7877325Y-10025984D01*
X7877325Y-10025984D02*
X7896372Y-10016460D01*
X7896372Y-10016460D02*
X7905896Y-10006936D01*
X7905896Y-10006936D02*
X7924944Y-9978365D01*
X7924944Y-9978365D02*
X7934467Y-9940270D01*
X7934467Y-9940270D02*
X7934467Y-9864079D01*
X7934467Y-9864079D02*
X7924944Y-9845031D01*
X7924944Y-9845031D02*
X7915420Y-9835508D01*
X7915420Y-9835508D02*
X7896372Y-9825984D01*
X7896372Y-9825984D02*
X7858277Y-9825984D01*
X7858277Y-9825984D02*
X7839229Y-9835508D01*
X7839229Y-9835508D02*
X7829706Y-9845031D01*
X7829706Y-9845031D02*
X7820182Y-9864079D01*
X7820182Y-9864079D02*
X7820182Y-9911698D01*
X7820182Y-9911698D02*
X7829706Y-9930746D01*
X7829706Y-9930746D02*
X7839229Y-9940270D01*
X7839229Y-9940270D02*
X7858277Y-9949793D01*
X7858277Y-9949793D02*
X7896372Y-9949793D01*
X7896372Y-9949793D02*
X7915420Y-9940270D01*
X7915420Y-9940270D02*
X7924944Y-9930746D01*
X7924944Y-9930746D02*
X7934467Y-9911698D01*
X8105896Y-9892650D02*
X8105896Y-10025984D01*
X8058277Y-9816460D02*
X8010658Y-9959317D01*
X8010658Y-9959317D02*
X8134467Y-9959317D01*
X8201134Y-9825984D02*
X8201134Y-9864079D01*
X8277325Y-9825984D02*
X8277325Y-9864079D01*
X8572563Y-10102174D02*
X8563039Y-10092650D01*
X8563039Y-10092650D02*
X8543991Y-10064079D01*
X8543991Y-10064079D02*
X8534468Y-10045031D01*
X8534468Y-10045031D02*
X8524944Y-10016460D01*
X8524944Y-10016460D02*
X8515420Y-9968841D01*
X8515420Y-9968841D02*
X8515420Y-9930746D01*
X8515420Y-9930746D02*
X8524944Y-9883127D01*
X8524944Y-9883127D02*
X8534468Y-9854555D01*
X8534468Y-9854555D02*
X8543991Y-9835508D01*
X8543991Y-9835508D02*
X8563039Y-9806936D01*
X8563039Y-9806936D02*
X8572563Y-9797412D01*
X8629706Y-9825984D02*
X8763039Y-9825984D01*
X8763039Y-9825984D02*
X8677325Y-10025984D01*
X8991611Y-10025984D02*
X8991611Y-9825984D01*
X9077325Y-10025984D02*
X9077325Y-9921222D01*
X9077325Y-9921222D02*
X9067801Y-9902174D01*
X9067801Y-9902174D02*
X9048753Y-9892650D01*
X9048753Y-9892650D02*
X9020182Y-9892650D01*
X9020182Y-9892650D02*
X9001134Y-9902174D01*
X9001134Y-9902174D02*
X8991611Y-9911698D01*
X9201134Y-10025984D02*
X9182087Y-10016460D01*
X9182087Y-10016460D02*
X9172563Y-10006936D01*
X9172563Y-10006936D02*
X9163039Y-9987889D01*
X9163039Y-9987889D02*
X9163039Y-9930746D01*
X9163039Y-9930746D02*
X9172563Y-9911698D01*
X9172563Y-9911698D02*
X9182087Y-9902174D01*
X9182087Y-9902174D02*
X9201134Y-9892650D01*
X9201134Y-9892650D02*
X9229706Y-9892650D01*
X9229706Y-9892650D02*
X9248753Y-9902174D01*
X9248753Y-9902174D02*
X9258277Y-9911698D01*
X9258277Y-9911698D02*
X9267801Y-9930746D01*
X9267801Y-9930746D02*
X9267801Y-9987889D01*
X9267801Y-9987889D02*
X9258277Y-10006936D01*
X9258277Y-10006936D02*
X9248753Y-10016460D01*
X9248753Y-10016460D02*
X9229706Y-10025984D01*
X9229706Y-10025984D02*
X9201134Y-10025984D01*
X9382087Y-10025984D02*
X9363039Y-10016460D01*
X9363039Y-10016460D02*
X9353515Y-9997412D01*
X9353515Y-9997412D02*
X9353515Y-9825984D01*
X9534468Y-10016460D02*
X9515420Y-10025984D01*
X9515420Y-10025984D02*
X9477325Y-10025984D01*
X9477325Y-10025984D02*
X9458277Y-10016460D01*
X9458277Y-10016460D02*
X9448753Y-9997412D01*
X9448753Y-9997412D02*
X9448753Y-9921222D01*
X9448753Y-9921222D02*
X9458277Y-9902174D01*
X9458277Y-9902174D02*
X9477325Y-9892650D01*
X9477325Y-9892650D02*
X9515420Y-9892650D01*
X9515420Y-9892650D02*
X9534468Y-9902174D01*
X9534468Y-9902174D02*
X9543992Y-9921222D01*
X9543992Y-9921222D02*
X9543992Y-9940270D01*
X9543992Y-9940270D02*
X9448753Y-9959317D01*
X9620182Y-10016460D02*
X9639230Y-10025984D01*
X9639230Y-10025984D02*
X9677325Y-10025984D01*
X9677325Y-10025984D02*
X9696373Y-10016460D01*
X9696373Y-10016460D02*
X9705896Y-9997412D01*
X9705896Y-9997412D02*
X9705896Y-9987889D01*
X9705896Y-9987889D02*
X9696373Y-9968841D01*
X9696373Y-9968841D02*
X9677325Y-9959317D01*
X9677325Y-9959317D02*
X9648753Y-9959317D01*
X9648753Y-9959317D02*
X9629706Y-9949793D01*
X9629706Y-9949793D02*
X9620182Y-9930746D01*
X9620182Y-9930746D02*
X9620182Y-9921222D01*
X9620182Y-9921222D02*
X9629706Y-9902174D01*
X9629706Y-9902174D02*
X9648753Y-9892650D01*
X9648753Y-9892650D02*
X9677325Y-9892650D01*
X9677325Y-9892650D02*
X9696373Y-9902174D01*
X9772563Y-10102174D02*
X9782087Y-10092650D01*
X9782087Y-10092650D02*
X9801134Y-10064079D01*
X9801134Y-10064079D02*
X9810658Y-10045031D01*
X9810658Y-10045031D02*
X9820182Y-10016460D01*
X9820182Y-10016460D02*
X9829706Y-9968841D01*
X9829706Y-9968841D02*
X9829706Y-9930746D01*
X9829706Y-9930746D02*
X9820182Y-9883127D01*
X9820182Y-9883127D02*
X9810658Y-9854555D01*
X9810658Y-9854555D02*
X9801134Y-9835508D01*
X9801134Y-9835508D02*
X9782087Y-9806936D01*
X9782087Y-9806936D02*
X9772563Y-9797412D01*
X4897500Y-10298500D02*
X4997500Y-10198500D01*
X4897500Y-10098500D01*
X4797500Y-10198500D01*
X4897500Y-10298500D01*
X5248753Y-10109031D02*
X5258277Y-10099508D01*
X5258277Y-10099508D02*
X5277324Y-10089984D01*
X5277324Y-10089984D02*
X5324944Y-10089984D01*
X5324944Y-10089984D02*
X5343991Y-10099508D01*
X5343991Y-10099508D02*
X5353515Y-10109031D01*
X5353515Y-10109031D02*
X5363039Y-10128079D01*
X5363039Y-10128079D02*
X5363039Y-10147127D01*
X5363039Y-10147127D02*
X5353515Y-10175698D01*
X5353515Y-10175698D02*
X5239229Y-10289984D01*
X5239229Y-10289984D02*
X5363039Y-10289984D01*
X5448753Y-10270936D02*
X5458277Y-10280460D01*
X5458277Y-10280460D02*
X5448753Y-10289984D01*
X5448753Y-10289984D02*
X5439229Y-10280460D01*
X5439229Y-10280460D02*
X5448753Y-10270936D01*
X5448753Y-10270936D02*
X5448753Y-10289984D01*
X5534467Y-10109031D02*
X5543991Y-10099508D01*
X5543991Y-10099508D02*
X5563039Y-10089984D01*
X5563039Y-10089984D02*
X5610658Y-10089984D01*
X5610658Y-10089984D02*
X5629705Y-10099508D01*
X5629705Y-10099508D02*
X5639229Y-10109031D01*
X5639229Y-10109031D02*
X5648753Y-10128079D01*
X5648753Y-10128079D02*
X5648753Y-10147127D01*
X5648753Y-10147127D02*
X5639229Y-10175698D01*
X5639229Y-10175698D02*
X5524944Y-10289984D01*
X5524944Y-10289984D02*
X5648753Y-10289984D01*
X5772562Y-10089984D02*
X5791610Y-10089984D01*
X5791610Y-10089984D02*
X5810658Y-10099508D01*
X5810658Y-10099508D02*
X5820182Y-10109031D01*
X5820182Y-10109031D02*
X5829705Y-10128079D01*
X5829705Y-10128079D02*
X5839229Y-10166174D01*
X5839229Y-10166174D02*
X5839229Y-10213793D01*
X5839229Y-10213793D02*
X5829705Y-10251889D01*
X5829705Y-10251889D02*
X5820182Y-10270936D01*
X5820182Y-10270936D02*
X5810658Y-10280460D01*
X5810658Y-10280460D02*
X5791610Y-10289984D01*
X5791610Y-10289984D02*
X5772562Y-10289984D01*
X5772562Y-10289984D02*
X5753515Y-10280460D01*
X5753515Y-10280460D02*
X5743991Y-10270936D01*
X5743991Y-10270936D02*
X5734467Y-10251889D01*
X5734467Y-10251889D02*
X5724943Y-10213793D01*
X5724943Y-10213793D02*
X5724943Y-10166174D01*
X5724943Y-10166174D02*
X5734467Y-10128079D01*
X5734467Y-10128079D02*
X5743991Y-10109031D01*
X5743991Y-10109031D02*
X5753515Y-10099508D01*
X5753515Y-10099508D02*
X5772562Y-10089984D01*
X5963039Y-10089984D02*
X5982086Y-10089984D01*
X5982086Y-10089984D02*
X6001134Y-10099508D01*
X6001134Y-10099508D02*
X6010658Y-10109031D01*
X6010658Y-10109031D02*
X6020182Y-10128079D01*
X6020182Y-10128079D02*
X6029705Y-10166174D01*
X6029705Y-10166174D02*
X6029705Y-10213793D01*
X6029705Y-10213793D02*
X6020182Y-10251889D01*
X6020182Y-10251889D02*
X6010658Y-10270936D01*
X6010658Y-10270936D02*
X6001134Y-10280460D01*
X6001134Y-10280460D02*
X5982086Y-10289984D01*
X5982086Y-10289984D02*
X5963039Y-10289984D01*
X5963039Y-10289984D02*
X5943991Y-10280460D01*
X5943991Y-10280460D02*
X5934467Y-10270936D01*
X5934467Y-10270936D02*
X5924943Y-10251889D01*
X5924943Y-10251889D02*
X5915420Y-10213793D01*
X5915420Y-10213793D02*
X5915420Y-10166174D01*
X5915420Y-10166174D02*
X5924943Y-10128079D01*
X5924943Y-10128079D02*
X5934467Y-10109031D01*
X5934467Y-10109031D02*
X5943991Y-10099508D01*
X5943991Y-10099508D02*
X5963039Y-10089984D01*
X6115420Y-10289984D02*
X6115420Y-10156650D01*
X6115420Y-10175698D02*
X6124943Y-10166174D01*
X6124943Y-10166174D02*
X6143991Y-10156650D01*
X6143991Y-10156650D02*
X6172563Y-10156650D01*
X6172563Y-10156650D02*
X6191610Y-10166174D01*
X6191610Y-10166174D02*
X6201134Y-10185222D01*
X6201134Y-10185222D02*
X6201134Y-10289984D01*
X6201134Y-10185222D02*
X6210658Y-10166174D01*
X6210658Y-10166174D02*
X6229705Y-10156650D01*
X6229705Y-10156650D02*
X6258277Y-10156650D01*
X6258277Y-10156650D02*
X6277324Y-10166174D01*
X6277324Y-10166174D02*
X6286848Y-10185222D01*
X6286848Y-10185222D02*
X6286848Y-10289984D01*
X6382086Y-10289984D02*
X6382086Y-10156650D01*
X6382086Y-10175698D02*
X6391610Y-10166174D01*
X6391610Y-10166174D02*
X6410658Y-10156650D01*
X6410658Y-10156650D02*
X6439229Y-10156650D01*
X6439229Y-10156650D02*
X6458277Y-10166174D01*
X6458277Y-10166174D02*
X6467801Y-10185222D01*
X6467801Y-10185222D02*
X6467801Y-10289984D01*
X6467801Y-10185222D02*
X6477324Y-10166174D01*
X6477324Y-10166174D02*
X6496372Y-10156650D01*
X6496372Y-10156650D02*
X6524943Y-10156650D01*
X6524943Y-10156650D02*
X6543991Y-10166174D01*
X6543991Y-10166174D02*
X6553515Y-10185222D01*
X6553515Y-10185222D02*
X6553515Y-10289984D01*
X6943991Y-10080460D02*
X6772563Y-10337603D01*
X7201134Y-10089984D02*
X7220182Y-10089984D01*
X7220182Y-10089984D02*
X7239229Y-10099508D01*
X7239229Y-10099508D02*
X7248753Y-10109031D01*
X7248753Y-10109031D02*
X7258277Y-10128079D01*
X7258277Y-10128079D02*
X7267801Y-10166174D01*
X7267801Y-10166174D02*
X7267801Y-10213793D01*
X7267801Y-10213793D02*
X7258277Y-10251889D01*
X7258277Y-10251889D02*
X7248753Y-10270936D01*
X7248753Y-10270936D02*
X7239229Y-10280460D01*
X7239229Y-10280460D02*
X7220182Y-10289984D01*
X7220182Y-10289984D02*
X7201134Y-10289984D01*
X7201134Y-10289984D02*
X7182086Y-10280460D01*
X7182086Y-10280460D02*
X7172563Y-10270936D01*
X7172563Y-10270936D02*
X7163039Y-10251889D01*
X7163039Y-10251889D02*
X7153515Y-10213793D01*
X7153515Y-10213793D02*
X7153515Y-10166174D01*
X7153515Y-10166174D02*
X7163039Y-10128079D01*
X7163039Y-10128079D02*
X7172563Y-10109031D01*
X7172563Y-10109031D02*
X7182086Y-10099508D01*
X7182086Y-10099508D02*
X7201134Y-10089984D01*
X7353515Y-10270936D02*
X7363039Y-10280460D01*
X7363039Y-10280460D02*
X7353515Y-10289984D01*
X7353515Y-10289984D02*
X7343991Y-10280460D01*
X7343991Y-10280460D02*
X7353515Y-10270936D01*
X7353515Y-10270936D02*
X7353515Y-10289984D01*
X7486848Y-10089984D02*
X7505896Y-10089984D01*
X7505896Y-10089984D02*
X7524944Y-10099508D01*
X7524944Y-10099508D02*
X7534467Y-10109031D01*
X7534467Y-10109031D02*
X7543991Y-10128079D01*
X7543991Y-10128079D02*
X7553515Y-10166174D01*
X7553515Y-10166174D02*
X7553515Y-10213793D01*
X7553515Y-10213793D02*
X7543991Y-10251889D01*
X7543991Y-10251889D02*
X7534467Y-10270936D01*
X7534467Y-10270936D02*
X7524944Y-10280460D01*
X7524944Y-10280460D02*
X7505896Y-10289984D01*
X7505896Y-10289984D02*
X7486848Y-10289984D01*
X7486848Y-10289984D02*
X7467801Y-10280460D01*
X7467801Y-10280460D02*
X7458277Y-10270936D01*
X7458277Y-10270936D02*
X7448753Y-10251889D01*
X7448753Y-10251889D02*
X7439229Y-10213793D01*
X7439229Y-10213793D02*
X7439229Y-10166174D01*
X7439229Y-10166174D02*
X7448753Y-10128079D01*
X7448753Y-10128079D02*
X7458277Y-10109031D01*
X7458277Y-10109031D02*
X7467801Y-10099508D01*
X7467801Y-10099508D02*
X7486848Y-10089984D01*
X7667801Y-10175698D02*
X7648753Y-10166174D01*
X7648753Y-10166174D02*
X7639229Y-10156650D01*
X7639229Y-10156650D02*
X7629706Y-10137603D01*
X7629706Y-10137603D02*
X7629706Y-10128079D01*
X7629706Y-10128079D02*
X7639229Y-10109031D01*
X7639229Y-10109031D02*
X7648753Y-10099508D01*
X7648753Y-10099508D02*
X7667801Y-10089984D01*
X7667801Y-10089984D02*
X7705896Y-10089984D01*
X7705896Y-10089984D02*
X7724944Y-10099508D01*
X7724944Y-10099508D02*
X7734467Y-10109031D01*
X7734467Y-10109031D02*
X7743991Y-10128079D01*
X7743991Y-10128079D02*
X7743991Y-10137603D01*
X7743991Y-10137603D02*
X7734467Y-10156650D01*
X7734467Y-10156650D02*
X7724944Y-10166174D01*
X7724944Y-10166174D02*
X7705896Y-10175698D01*
X7705896Y-10175698D02*
X7667801Y-10175698D01*
X7667801Y-10175698D02*
X7648753Y-10185222D01*
X7648753Y-10185222D02*
X7639229Y-10194746D01*
X7639229Y-10194746D02*
X7629706Y-10213793D01*
X7629706Y-10213793D02*
X7629706Y-10251889D01*
X7629706Y-10251889D02*
X7639229Y-10270936D01*
X7639229Y-10270936D02*
X7648753Y-10280460D01*
X7648753Y-10280460D02*
X7667801Y-10289984D01*
X7667801Y-10289984D02*
X7705896Y-10289984D01*
X7705896Y-10289984D02*
X7724944Y-10280460D01*
X7724944Y-10280460D02*
X7734467Y-10270936D01*
X7734467Y-10270936D02*
X7743991Y-10251889D01*
X7743991Y-10251889D02*
X7743991Y-10213793D01*
X7743991Y-10213793D02*
X7734467Y-10194746D01*
X7734467Y-10194746D02*
X7724944Y-10185222D01*
X7724944Y-10185222D02*
X7705896Y-10175698D01*
X7915420Y-10089984D02*
X7877325Y-10089984D01*
X7877325Y-10089984D02*
X7858277Y-10099508D01*
X7858277Y-10099508D02*
X7848753Y-10109031D01*
X7848753Y-10109031D02*
X7829706Y-10137603D01*
X7829706Y-10137603D02*
X7820182Y-10175698D01*
X7820182Y-10175698D02*
X7820182Y-10251889D01*
X7820182Y-10251889D02*
X7829706Y-10270936D01*
X7829706Y-10270936D02*
X7839229Y-10280460D01*
X7839229Y-10280460D02*
X7858277Y-10289984D01*
X7858277Y-10289984D02*
X7896372Y-10289984D01*
X7896372Y-10289984D02*
X7915420Y-10280460D01*
X7915420Y-10280460D02*
X7924944Y-10270936D01*
X7924944Y-10270936D02*
X7934467Y-10251889D01*
X7934467Y-10251889D02*
X7934467Y-10204270D01*
X7934467Y-10204270D02*
X7924944Y-10185222D01*
X7924944Y-10185222D02*
X7915420Y-10175698D01*
X7915420Y-10175698D02*
X7896372Y-10166174D01*
X7896372Y-10166174D02*
X7858277Y-10166174D01*
X7858277Y-10166174D02*
X7839229Y-10175698D01*
X7839229Y-10175698D02*
X7829706Y-10185222D01*
X7829706Y-10185222D02*
X7820182Y-10204270D01*
X8105896Y-10089984D02*
X8067801Y-10089984D01*
X8067801Y-10089984D02*
X8048753Y-10099508D01*
X8048753Y-10099508D02*
X8039229Y-10109031D01*
X8039229Y-10109031D02*
X8020182Y-10137603D01*
X8020182Y-10137603D02*
X8010658Y-10175698D01*
X8010658Y-10175698D02*
X8010658Y-10251889D01*
X8010658Y-10251889D02*
X8020182Y-10270936D01*
X8020182Y-10270936D02*
X8029706Y-10280460D01*
X8029706Y-10280460D02*
X8048753Y-10289984D01*
X8048753Y-10289984D02*
X8086848Y-10289984D01*
X8086848Y-10289984D02*
X8105896Y-10280460D01*
X8105896Y-10280460D02*
X8115420Y-10270936D01*
X8115420Y-10270936D02*
X8124944Y-10251889D01*
X8124944Y-10251889D02*
X8124944Y-10204270D01*
X8124944Y-10204270D02*
X8115420Y-10185222D01*
X8115420Y-10185222D02*
X8105896Y-10175698D01*
X8105896Y-10175698D02*
X8086848Y-10166174D01*
X8086848Y-10166174D02*
X8048753Y-10166174D01*
X8048753Y-10166174D02*
X8029706Y-10175698D01*
X8029706Y-10175698D02*
X8020182Y-10185222D01*
X8020182Y-10185222D02*
X8010658Y-10204270D01*
X8201134Y-10089984D02*
X8201134Y-10128079D01*
X8277325Y-10089984D02*
X8277325Y-10128079D01*
X8572563Y-10366174D02*
X8563039Y-10356650D01*
X8563039Y-10356650D02*
X8543991Y-10328079D01*
X8543991Y-10328079D02*
X8534468Y-10309031D01*
X8534468Y-10309031D02*
X8524944Y-10280460D01*
X8524944Y-10280460D02*
X8515420Y-10232841D01*
X8515420Y-10232841D02*
X8515420Y-10194746D01*
X8515420Y-10194746D02*
X8524944Y-10147127D01*
X8524944Y-10147127D02*
X8534468Y-10118555D01*
X8534468Y-10118555D02*
X8543991Y-10099508D01*
X8543991Y-10099508D02*
X8563039Y-10070936D01*
X8563039Y-10070936D02*
X8572563Y-10061412D01*
X8639230Y-10109031D02*
X8648753Y-10099508D01*
X8648753Y-10099508D02*
X8667801Y-10089984D01*
X8667801Y-10089984D02*
X8715420Y-10089984D01*
X8715420Y-10089984D02*
X8734468Y-10099508D01*
X8734468Y-10099508D02*
X8743991Y-10109031D01*
X8743991Y-10109031D02*
X8753515Y-10128079D01*
X8753515Y-10128079D02*
X8753515Y-10147127D01*
X8753515Y-10147127D02*
X8743991Y-10175698D01*
X8743991Y-10175698D02*
X8629706Y-10289984D01*
X8629706Y-10289984D02*
X8753515Y-10289984D01*
X8991611Y-10289984D02*
X8991611Y-10089984D01*
X9077325Y-10289984D02*
X9077325Y-10185222D01*
X9077325Y-10185222D02*
X9067801Y-10166174D01*
X9067801Y-10166174D02*
X9048753Y-10156650D01*
X9048753Y-10156650D02*
X9020182Y-10156650D01*
X9020182Y-10156650D02*
X9001134Y-10166174D01*
X9001134Y-10166174D02*
X8991611Y-10175698D01*
X9201134Y-10289984D02*
X9182087Y-10280460D01*
X9182087Y-10280460D02*
X9172563Y-10270936D01*
X9172563Y-10270936D02*
X9163039Y-10251889D01*
X9163039Y-10251889D02*
X9163039Y-10194746D01*
X9163039Y-10194746D02*
X9172563Y-10175698D01*
X9172563Y-10175698D02*
X9182087Y-10166174D01*
X9182087Y-10166174D02*
X9201134Y-10156650D01*
X9201134Y-10156650D02*
X9229706Y-10156650D01*
X9229706Y-10156650D02*
X9248753Y-10166174D01*
X9248753Y-10166174D02*
X9258277Y-10175698D01*
X9258277Y-10175698D02*
X9267801Y-10194746D01*
X9267801Y-10194746D02*
X9267801Y-10251889D01*
X9267801Y-10251889D02*
X9258277Y-10270936D01*
X9258277Y-10270936D02*
X9248753Y-10280460D01*
X9248753Y-10280460D02*
X9229706Y-10289984D01*
X9229706Y-10289984D02*
X9201134Y-10289984D01*
X9382087Y-10289984D02*
X9363039Y-10280460D01*
X9363039Y-10280460D02*
X9353515Y-10261412D01*
X9353515Y-10261412D02*
X9353515Y-10089984D01*
X9534468Y-10280460D02*
X9515420Y-10289984D01*
X9515420Y-10289984D02*
X9477325Y-10289984D01*
X9477325Y-10289984D02*
X9458277Y-10280460D01*
X9458277Y-10280460D02*
X9448753Y-10261412D01*
X9448753Y-10261412D02*
X9448753Y-10185222D01*
X9448753Y-10185222D02*
X9458277Y-10166174D01*
X9458277Y-10166174D02*
X9477325Y-10156650D01*
X9477325Y-10156650D02*
X9515420Y-10156650D01*
X9515420Y-10156650D02*
X9534468Y-10166174D01*
X9534468Y-10166174D02*
X9543992Y-10185222D01*
X9543992Y-10185222D02*
X9543992Y-10204270D01*
X9543992Y-10204270D02*
X9448753Y-10223317D01*
X9620182Y-10280460D02*
X9639230Y-10289984D01*
X9639230Y-10289984D02*
X9677325Y-10289984D01*
X9677325Y-10289984D02*
X9696373Y-10280460D01*
X9696373Y-10280460D02*
X9705896Y-10261412D01*
X9705896Y-10261412D02*
X9705896Y-10251889D01*
X9705896Y-10251889D02*
X9696373Y-10232841D01*
X9696373Y-10232841D02*
X9677325Y-10223317D01*
X9677325Y-10223317D02*
X9648753Y-10223317D01*
X9648753Y-10223317D02*
X9629706Y-10213793D01*
X9629706Y-10213793D02*
X9620182Y-10194746D01*
X9620182Y-10194746D02*
X9620182Y-10185222D01*
X9620182Y-10185222D02*
X9629706Y-10166174D01*
X9629706Y-10166174D02*
X9648753Y-10156650D01*
X9648753Y-10156650D02*
X9677325Y-10156650D01*
X9677325Y-10156650D02*
X9696373Y-10166174D01*
X9772563Y-10366174D02*
X9782087Y-10356650D01*
X9782087Y-10356650D02*
X9801134Y-10328079D01*
X9801134Y-10328079D02*
X9810658Y-10309031D01*
X9810658Y-10309031D02*
X9820182Y-10280460D01*
X9820182Y-10280460D02*
X9829706Y-10232841D01*
X9829706Y-10232841D02*
X9829706Y-10194746D01*
X9829706Y-10194746D02*
X9820182Y-10147127D01*
X9820182Y-10147127D02*
X9810658Y-10118555D01*
X9810658Y-10118555D02*
X9801134Y-10099508D01*
X9801134Y-10099508D02*
X9782087Y-10070936D01*
X9782087Y-10070936D02*
X9772563Y-10061412D01*
X4797500Y-10418500D02*
X4997500Y-10618500D01*
X4997500Y-10418500D02*
X4797500Y-10618500D01*
X4997500Y-10518500D02*
G75*
G02*
X4797500Y-10518500I-100000J0D01*
G01*
X4797500Y-10518500D02*
G75*
G02*
X4997500Y-10518500I100000J0D01*
G01*
X5248753Y-10429031D02*
X5258277Y-10419508D01*
X5258277Y-10419508D02*
X5277324Y-10409984D01*
X5277324Y-10409984D02*
X5324944Y-10409984D01*
X5324944Y-10409984D02*
X5343991Y-10419508D01*
X5343991Y-10419508D02*
X5353515Y-10429031D01*
X5353515Y-10429031D02*
X5363039Y-10448079D01*
X5363039Y-10448079D02*
X5363039Y-10467127D01*
X5363039Y-10467127D02*
X5353515Y-10495698D01*
X5353515Y-10495698D02*
X5239229Y-10609984D01*
X5239229Y-10609984D02*
X5363039Y-10609984D01*
X5448753Y-10590936D02*
X5458277Y-10600460D01*
X5458277Y-10600460D02*
X5448753Y-10609984D01*
X5448753Y-10609984D02*
X5439229Y-10600460D01*
X5439229Y-10600460D02*
X5448753Y-10590936D01*
X5448753Y-10590936D02*
X5448753Y-10609984D01*
X5629705Y-10476650D02*
X5629705Y-10609984D01*
X5582086Y-10400460D02*
X5534467Y-10543317D01*
X5534467Y-10543317D02*
X5658277Y-10543317D01*
X5772562Y-10409984D02*
X5791610Y-10409984D01*
X5791610Y-10409984D02*
X5810658Y-10419508D01*
X5810658Y-10419508D02*
X5820182Y-10429031D01*
X5820182Y-10429031D02*
X5829705Y-10448079D01*
X5829705Y-10448079D02*
X5839229Y-10486174D01*
X5839229Y-10486174D02*
X5839229Y-10533793D01*
X5839229Y-10533793D02*
X5829705Y-10571889D01*
X5829705Y-10571889D02*
X5820182Y-10590936D01*
X5820182Y-10590936D02*
X5810658Y-10600460D01*
X5810658Y-10600460D02*
X5791610Y-10609984D01*
X5791610Y-10609984D02*
X5772562Y-10609984D01*
X5772562Y-10609984D02*
X5753515Y-10600460D01*
X5753515Y-10600460D02*
X5743991Y-10590936D01*
X5743991Y-10590936D02*
X5734467Y-10571889D01*
X5734467Y-10571889D02*
X5724943Y-10533793D01*
X5724943Y-10533793D02*
X5724943Y-10486174D01*
X5724943Y-10486174D02*
X5734467Y-10448079D01*
X5734467Y-10448079D02*
X5743991Y-10429031D01*
X5743991Y-10429031D02*
X5753515Y-10419508D01*
X5753515Y-10419508D02*
X5772562Y-10409984D01*
X5963039Y-10409984D02*
X5982086Y-10409984D01*
X5982086Y-10409984D02*
X6001134Y-10419508D01*
X6001134Y-10419508D02*
X6010658Y-10429031D01*
X6010658Y-10429031D02*
X6020182Y-10448079D01*
X6020182Y-10448079D02*
X6029705Y-10486174D01*
X6029705Y-10486174D02*
X6029705Y-10533793D01*
X6029705Y-10533793D02*
X6020182Y-10571889D01*
X6020182Y-10571889D02*
X6010658Y-10590936D01*
X6010658Y-10590936D02*
X6001134Y-10600460D01*
X6001134Y-10600460D02*
X5982086Y-10609984D01*
X5982086Y-10609984D02*
X5963039Y-10609984D01*
X5963039Y-10609984D02*
X5943991Y-10600460D01*
X5943991Y-10600460D02*
X5934467Y-10590936D01*
X5934467Y-10590936D02*
X5924943Y-10571889D01*
X5924943Y-10571889D02*
X5915420Y-10533793D01*
X5915420Y-10533793D02*
X5915420Y-10486174D01*
X5915420Y-10486174D02*
X5924943Y-10448079D01*
X5924943Y-10448079D02*
X5934467Y-10429031D01*
X5934467Y-10429031D02*
X5943991Y-10419508D01*
X5943991Y-10419508D02*
X5963039Y-10409984D01*
X6115420Y-10609984D02*
X6115420Y-10476650D01*
X6115420Y-10495698D02*
X6124943Y-10486174D01*
X6124943Y-10486174D02*
X6143991Y-10476650D01*
X6143991Y-10476650D02*
X6172563Y-10476650D01*
X6172563Y-10476650D02*
X6191610Y-10486174D01*
X6191610Y-10486174D02*
X6201134Y-10505222D01*
X6201134Y-10505222D02*
X6201134Y-10609984D01*
X6201134Y-10505222D02*
X6210658Y-10486174D01*
X6210658Y-10486174D02*
X6229705Y-10476650D01*
X6229705Y-10476650D02*
X6258277Y-10476650D01*
X6258277Y-10476650D02*
X6277324Y-10486174D01*
X6277324Y-10486174D02*
X6286848Y-10505222D01*
X6286848Y-10505222D02*
X6286848Y-10609984D01*
X6382086Y-10609984D02*
X6382086Y-10476650D01*
X6382086Y-10495698D02*
X6391610Y-10486174D01*
X6391610Y-10486174D02*
X6410658Y-10476650D01*
X6410658Y-10476650D02*
X6439229Y-10476650D01*
X6439229Y-10476650D02*
X6458277Y-10486174D01*
X6458277Y-10486174D02*
X6467801Y-10505222D01*
X6467801Y-10505222D02*
X6467801Y-10609984D01*
X6467801Y-10505222D02*
X6477324Y-10486174D01*
X6477324Y-10486174D02*
X6496372Y-10476650D01*
X6496372Y-10476650D02*
X6524943Y-10476650D01*
X6524943Y-10476650D02*
X6543991Y-10486174D01*
X6543991Y-10486174D02*
X6553515Y-10505222D01*
X6553515Y-10505222D02*
X6553515Y-10609984D01*
X6943991Y-10400460D02*
X6772563Y-10657603D01*
X7201134Y-10409984D02*
X7220182Y-10409984D01*
X7220182Y-10409984D02*
X7239229Y-10419508D01*
X7239229Y-10419508D02*
X7248753Y-10429031D01*
X7248753Y-10429031D02*
X7258277Y-10448079D01*
X7258277Y-10448079D02*
X7267801Y-10486174D01*
X7267801Y-10486174D02*
X7267801Y-10533793D01*
X7267801Y-10533793D02*
X7258277Y-10571889D01*
X7258277Y-10571889D02*
X7248753Y-10590936D01*
X7248753Y-10590936D02*
X7239229Y-10600460D01*
X7239229Y-10600460D02*
X7220182Y-10609984D01*
X7220182Y-10609984D02*
X7201134Y-10609984D01*
X7201134Y-10609984D02*
X7182086Y-10600460D01*
X7182086Y-10600460D02*
X7172563Y-10590936D01*
X7172563Y-10590936D02*
X7163039Y-10571889D01*
X7163039Y-10571889D02*
X7153515Y-10533793D01*
X7153515Y-10533793D02*
X7153515Y-10486174D01*
X7153515Y-10486174D02*
X7163039Y-10448079D01*
X7163039Y-10448079D02*
X7172563Y-10429031D01*
X7172563Y-10429031D02*
X7182086Y-10419508D01*
X7182086Y-10419508D02*
X7201134Y-10409984D01*
X7353515Y-10590936D02*
X7363039Y-10600460D01*
X7363039Y-10600460D02*
X7353515Y-10609984D01*
X7353515Y-10609984D02*
X7343991Y-10600460D01*
X7343991Y-10600460D02*
X7353515Y-10590936D01*
X7353515Y-10590936D02*
X7353515Y-10609984D01*
X7486848Y-10409984D02*
X7505896Y-10409984D01*
X7505896Y-10409984D02*
X7524944Y-10419508D01*
X7524944Y-10419508D02*
X7534467Y-10429031D01*
X7534467Y-10429031D02*
X7543991Y-10448079D01*
X7543991Y-10448079D02*
X7553515Y-10486174D01*
X7553515Y-10486174D02*
X7553515Y-10533793D01*
X7553515Y-10533793D02*
X7543991Y-10571889D01*
X7543991Y-10571889D02*
X7534467Y-10590936D01*
X7534467Y-10590936D02*
X7524944Y-10600460D01*
X7524944Y-10600460D02*
X7505896Y-10609984D01*
X7505896Y-10609984D02*
X7486848Y-10609984D01*
X7486848Y-10609984D02*
X7467801Y-10600460D01*
X7467801Y-10600460D02*
X7458277Y-10590936D01*
X7458277Y-10590936D02*
X7448753Y-10571889D01*
X7448753Y-10571889D02*
X7439229Y-10533793D01*
X7439229Y-10533793D02*
X7439229Y-10486174D01*
X7439229Y-10486174D02*
X7448753Y-10448079D01*
X7448753Y-10448079D02*
X7458277Y-10429031D01*
X7458277Y-10429031D02*
X7467801Y-10419508D01*
X7467801Y-10419508D02*
X7486848Y-10409984D01*
X7648753Y-10609984D02*
X7686848Y-10609984D01*
X7686848Y-10609984D02*
X7705896Y-10600460D01*
X7705896Y-10600460D02*
X7715420Y-10590936D01*
X7715420Y-10590936D02*
X7734467Y-10562365D01*
X7734467Y-10562365D02*
X7743991Y-10524270D01*
X7743991Y-10524270D02*
X7743991Y-10448079D01*
X7743991Y-10448079D02*
X7734467Y-10429031D01*
X7734467Y-10429031D02*
X7724944Y-10419508D01*
X7724944Y-10419508D02*
X7705896Y-10409984D01*
X7705896Y-10409984D02*
X7667801Y-10409984D01*
X7667801Y-10409984D02*
X7648753Y-10419508D01*
X7648753Y-10419508D02*
X7639229Y-10429031D01*
X7639229Y-10429031D02*
X7629706Y-10448079D01*
X7629706Y-10448079D02*
X7629706Y-10495698D01*
X7629706Y-10495698D02*
X7639229Y-10514746D01*
X7639229Y-10514746D02*
X7648753Y-10524270D01*
X7648753Y-10524270D02*
X7667801Y-10533793D01*
X7667801Y-10533793D02*
X7705896Y-10533793D01*
X7705896Y-10533793D02*
X7724944Y-10524270D01*
X7724944Y-10524270D02*
X7734467Y-10514746D01*
X7734467Y-10514746D02*
X7743991Y-10495698D01*
X7915420Y-10476650D02*
X7915420Y-10609984D01*
X7867801Y-10400460D02*
X7820182Y-10543317D01*
X7820182Y-10543317D02*
X7943991Y-10543317D01*
X8115420Y-10409984D02*
X8020182Y-10409984D01*
X8020182Y-10409984D02*
X8010658Y-10505222D01*
X8010658Y-10505222D02*
X8020182Y-10495698D01*
X8020182Y-10495698D02*
X8039229Y-10486174D01*
X8039229Y-10486174D02*
X8086848Y-10486174D01*
X8086848Y-10486174D02*
X8105896Y-10495698D01*
X8105896Y-10495698D02*
X8115420Y-10505222D01*
X8115420Y-10505222D02*
X8124944Y-10524270D01*
X8124944Y-10524270D02*
X8124944Y-10571889D01*
X8124944Y-10571889D02*
X8115420Y-10590936D01*
X8115420Y-10590936D02*
X8105896Y-10600460D01*
X8105896Y-10600460D02*
X8086848Y-10609984D01*
X8086848Y-10609984D02*
X8039229Y-10609984D01*
X8039229Y-10609984D02*
X8020182Y-10600460D01*
X8020182Y-10600460D02*
X8010658Y-10590936D01*
X8201134Y-10409984D02*
X8201134Y-10448079D01*
X8277325Y-10409984D02*
X8277325Y-10448079D01*
X8572563Y-10686174D02*
X8563039Y-10676650D01*
X8563039Y-10676650D02*
X8543991Y-10648079D01*
X8543991Y-10648079D02*
X8534468Y-10629031D01*
X8534468Y-10629031D02*
X8524944Y-10600460D01*
X8524944Y-10600460D02*
X8515420Y-10552841D01*
X8515420Y-10552841D02*
X8515420Y-10514746D01*
X8515420Y-10514746D02*
X8524944Y-10467127D01*
X8524944Y-10467127D02*
X8534468Y-10438555D01*
X8534468Y-10438555D02*
X8543991Y-10419508D01*
X8543991Y-10419508D02*
X8563039Y-10390936D01*
X8563039Y-10390936D02*
X8572563Y-10381412D01*
X8639230Y-10429031D02*
X8648753Y-10419508D01*
X8648753Y-10419508D02*
X8667801Y-10409984D01*
X8667801Y-10409984D02*
X8715420Y-10409984D01*
X8715420Y-10409984D02*
X8734468Y-10419508D01*
X8734468Y-10419508D02*
X8743991Y-10429031D01*
X8743991Y-10429031D02*
X8753515Y-10448079D01*
X8753515Y-10448079D02*
X8753515Y-10467127D01*
X8753515Y-10467127D02*
X8743991Y-10495698D01*
X8743991Y-10495698D02*
X8629706Y-10609984D01*
X8629706Y-10609984D02*
X8753515Y-10609984D01*
X8991611Y-10609984D02*
X8991611Y-10409984D01*
X9077325Y-10609984D02*
X9077325Y-10505222D01*
X9077325Y-10505222D02*
X9067801Y-10486174D01*
X9067801Y-10486174D02*
X9048753Y-10476650D01*
X9048753Y-10476650D02*
X9020182Y-10476650D01*
X9020182Y-10476650D02*
X9001134Y-10486174D01*
X9001134Y-10486174D02*
X8991611Y-10495698D01*
X9201134Y-10609984D02*
X9182087Y-10600460D01*
X9182087Y-10600460D02*
X9172563Y-10590936D01*
X9172563Y-10590936D02*
X9163039Y-10571889D01*
X9163039Y-10571889D02*
X9163039Y-10514746D01*
X9163039Y-10514746D02*
X9172563Y-10495698D01*
X9172563Y-10495698D02*
X9182087Y-10486174D01*
X9182087Y-10486174D02*
X9201134Y-10476650D01*
X9201134Y-10476650D02*
X9229706Y-10476650D01*
X9229706Y-10476650D02*
X9248753Y-10486174D01*
X9248753Y-10486174D02*
X9258277Y-10495698D01*
X9258277Y-10495698D02*
X9267801Y-10514746D01*
X9267801Y-10514746D02*
X9267801Y-10571889D01*
X9267801Y-10571889D02*
X9258277Y-10590936D01*
X9258277Y-10590936D02*
X9248753Y-10600460D01*
X9248753Y-10600460D02*
X9229706Y-10609984D01*
X9229706Y-10609984D02*
X9201134Y-10609984D01*
X9382087Y-10609984D02*
X9363039Y-10600460D01*
X9363039Y-10600460D02*
X9353515Y-10581412D01*
X9353515Y-10581412D02*
X9353515Y-10409984D01*
X9534468Y-10600460D02*
X9515420Y-10609984D01*
X9515420Y-10609984D02*
X9477325Y-10609984D01*
X9477325Y-10609984D02*
X9458277Y-10600460D01*
X9458277Y-10600460D02*
X9448753Y-10581412D01*
X9448753Y-10581412D02*
X9448753Y-10505222D01*
X9448753Y-10505222D02*
X9458277Y-10486174D01*
X9458277Y-10486174D02*
X9477325Y-10476650D01*
X9477325Y-10476650D02*
X9515420Y-10476650D01*
X9515420Y-10476650D02*
X9534468Y-10486174D01*
X9534468Y-10486174D02*
X9543992Y-10505222D01*
X9543992Y-10505222D02*
X9543992Y-10524270D01*
X9543992Y-10524270D02*
X9448753Y-10543317D01*
X9620182Y-10600460D02*
X9639230Y-10609984D01*
X9639230Y-10609984D02*
X9677325Y-10609984D01*
X9677325Y-10609984D02*
X9696373Y-10600460D01*
X9696373Y-10600460D02*
X9705896Y-10581412D01*
X9705896Y-10581412D02*
X9705896Y-10571889D01*
X9705896Y-10571889D02*
X9696373Y-10552841D01*
X9696373Y-10552841D02*
X9677325Y-10543317D01*
X9677325Y-10543317D02*
X9648753Y-10543317D01*
X9648753Y-10543317D02*
X9629706Y-10533793D01*
X9629706Y-10533793D02*
X9620182Y-10514746D01*
X9620182Y-10514746D02*
X9620182Y-10505222D01*
X9620182Y-10505222D02*
X9629706Y-10486174D01*
X9629706Y-10486174D02*
X9648753Y-10476650D01*
X9648753Y-10476650D02*
X9677325Y-10476650D01*
X9677325Y-10476650D02*
X9696373Y-10486174D01*
X9772563Y-10686174D02*
X9782087Y-10676650D01*
X9782087Y-10676650D02*
X9801134Y-10648079D01*
X9801134Y-10648079D02*
X9810658Y-10629031D01*
X9810658Y-10629031D02*
X9820182Y-10600460D01*
X9820182Y-10600460D02*
X9829706Y-10552841D01*
X9829706Y-10552841D02*
X9829706Y-10514746D01*
X9829706Y-10514746D02*
X9820182Y-10467127D01*
X9820182Y-10467127D02*
X9810658Y-10438555D01*
X9810658Y-10438555D02*
X9801134Y-10419508D01*
X9801134Y-10419508D02*
X9782087Y-10390936D01*
X9782087Y-10390936D02*
X9772563Y-10381412D01*
M02*
